%
M48
M72
T01C0.0120
T02C0.0160
T03C0.0250
T04C0.0276
T05C0.0320
T06C0.0400
T07C0.0433
T08C0.0787
%
T01
X9820Y3183
X12340Y3973
X12640Y4343
X11880Y5283
X14130Y6333
X14440Y5473
X15760Y4523
X14200Y3033
X14160Y2123
T02
X10630Y5633
X10630Y6133
T03
X8980Y5333
X6530Y3903
X11310Y3363
T04
X16542Y3571
X16542Y2980
X16542Y2390
X16542Y4161
X16542Y4752
X16542Y5343
T05
X12430Y2983
X10810Y3623
X10080Y3623
X7320Y2283
T06
X8280Y6083
T07
X7109Y3047
X7109Y4819
T08
X9263Y6065
X9263Y1813
M30
