G75*
%MOIN*%
%OFA0B0*%
%FSLAX25Y25*%
%IPPOS*%
%LPD*%
%AMOC8*
5,1,8,0,0,1.08239X$1,22.5*
%
%ADD10C,0.00000*%
%ADD11R,0.04134X0.04252*%
%ADD12R,0.04252X0.04134*%
%ADD13C,0.00787*%
%ADD14C,0.03562*%
%ADD15R,0.03937X0.04331*%
%ADD16R,0.05906X0.05118*%
%ADD17C,0.05000*%
%ADD18C,0.03937*%
%ADD19R,0.04331X0.03937*%
%ADD20C,0.03200*%
%ADD21C,0.04800*%
%ADD22C,0.02500*%
%ADD23C,0.03750*%
%ADD24C,0.01000*%
%ADD25C,0.02400*%
D10*
X0058802Y0013831D02*
X0061802Y0010831D01*
X0180849Y0010831D01*
X0180849Y0065949D01*
X0061802Y0065949D01*
X0058802Y0062949D01*
X0058802Y0013831D01*
X0090691Y0017130D02*
X0090693Y0017255D01*
X0090699Y0017380D01*
X0090709Y0017504D01*
X0090723Y0017628D01*
X0090740Y0017752D01*
X0090762Y0017875D01*
X0090788Y0017997D01*
X0090817Y0018119D01*
X0090850Y0018239D01*
X0090888Y0018358D01*
X0090928Y0018477D01*
X0090973Y0018593D01*
X0091021Y0018708D01*
X0091073Y0018822D01*
X0091129Y0018934D01*
X0091188Y0019044D01*
X0091250Y0019152D01*
X0091316Y0019259D01*
X0091385Y0019363D01*
X0091458Y0019464D01*
X0091533Y0019564D01*
X0091612Y0019661D01*
X0091694Y0019755D01*
X0091779Y0019847D01*
X0091866Y0019936D01*
X0091957Y0020022D01*
X0092050Y0020105D01*
X0092146Y0020186D01*
X0092244Y0020263D01*
X0092344Y0020337D01*
X0092447Y0020408D01*
X0092552Y0020475D01*
X0092660Y0020540D01*
X0092769Y0020600D01*
X0092880Y0020658D01*
X0092993Y0020711D01*
X0093107Y0020761D01*
X0093223Y0020808D01*
X0093340Y0020850D01*
X0093459Y0020889D01*
X0093579Y0020925D01*
X0093700Y0020956D01*
X0093822Y0020984D01*
X0093944Y0021007D01*
X0094068Y0021027D01*
X0094192Y0021043D01*
X0094316Y0021055D01*
X0094441Y0021063D01*
X0094566Y0021067D01*
X0094690Y0021067D01*
X0094815Y0021063D01*
X0094940Y0021055D01*
X0095064Y0021043D01*
X0095188Y0021027D01*
X0095312Y0021007D01*
X0095434Y0020984D01*
X0095556Y0020956D01*
X0095677Y0020925D01*
X0095797Y0020889D01*
X0095916Y0020850D01*
X0096033Y0020808D01*
X0096149Y0020761D01*
X0096263Y0020711D01*
X0096376Y0020658D01*
X0096487Y0020600D01*
X0096597Y0020540D01*
X0096704Y0020475D01*
X0096809Y0020408D01*
X0096912Y0020337D01*
X0097012Y0020263D01*
X0097110Y0020186D01*
X0097206Y0020105D01*
X0097299Y0020022D01*
X0097390Y0019936D01*
X0097477Y0019847D01*
X0097562Y0019755D01*
X0097644Y0019661D01*
X0097723Y0019564D01*
X0097798Y0019464D01*
X0097871Y0019363D01*
X0097940Y0019259D01*
X0098006Y0019152D01*
X0098068Y0019044D01*
X0098127Y0018934D01*
X0098183Y0018822D01*
X0098235Y0018708D01*
X0098283Y0018593D01*
X0098328Y0018477D01*
X0098368Y0018358D01*
X0098406Y0018239D01*
X0098439Y0018119D01*
X0098468Y0017997D01*
X0098494Y0017875D01*
X0098516Y0017752D01*
X0098533Y0017628D01*
X0098547Y0017504D01*
X0098557Y0017380D01*
X0098563Y0017255D01*
X0098565Y0017130D01*
X0098563Y0017005D01*
X0098557Y0016880D01*
X0098547Y0016756D01*
X0098533Y0016632D01*
X0098516Y0016508D01*
X0098494Y0016385D01*
X0098468Y0016263D01*
X0098439Y0016141D01*
X0098406Y0016021D01*
X0098368Y0015902D01*
X0098328Y0015783D01*
X0098283Y0015667D01*
X0098235Y0015552D01*
X0098183Y0015438D01*
X0098127Y0015326D01*
X0098068Y0015216D01*
X0098006Y0015108D01*
X0097940Y0015001D01*
X0097871Y0014897D01*
X0097798Y0014796D01*
X0097723Y0014696D01*
X0097644Y0014599D01*
X0097562Y0014505D01*
X0097477Y0014413D01*
X0097390Y0014324D01*
X0097299Y0014238D01*
X0097206Y0014155D01*
X0097110Y0014074D01*
X0097012Y0013997D01*
X0096912Y0013923D01*
X0096809Y0013852D01*
X0096704Y0013785D01*
X0096596Y0013720D01*
X0096487Y0013660D01*
X0096376Y0013602D01*
X0096263Y0013549D01*
X0096149Y0013499D01*
X0096033Y0013452D01*
X0095916Y0013410D01*
X0095797Y0013371D01*
X0095677Y0013335D01*
X0095556Y0013304D01*
X0095434Y0013276D01*
X0095312Y0013253D01*
X0095188Y0013233D01*
X0095064Y0013217D01*
X0094940Y0013205D01*
X0094815Y0013197D01*
X0094690Y0013193D01*
X0094566Y0013193D01*
X0094441Y0013197D01*
X0094316Y0013205D01*
X0094192Y0013217D01*
X0094068Y0013233D01*
X0093944Y0013253D01*
X0093822Y0013276D01*
X0093700Y0013304D01*
X0093579Y0013335D01*
X0093459Y0013371D01*
X0093340Y0013410D01*
X0093223Y0013452D01*
X0093107Y0013499D01*
X0092993Y0013549D01*
X0092880Y0013602D01*
X0092769Y0013660D01*
X0092659Y0013720D01*
X0092552Y0013785D01*
X0092447Y0013852D01*
X0092344Y0013923D01*
X0092244Y0013997D01*
X0092146Y0014074D01*
X0092050Y0014155D01*
X0091957Y0014238D01*
X0091866Y0014324D01*
X0091779Y0014413D01*
X0091694Y0014505D01*
X0091612Y0014599D01*
X0091533Y0014696D01*
X0091458Y0014796D01*
X0091385Y0014897D01*
X0091316Y0015001D01*
X0091250Y0015108D01*
X0091188Y0015216D01*
X0091129Y0015326D01*
X0091073Y0015438D01*
X0091021Y0015552D01*
X0090973Y0015667D01*
X0090928Y0015783D01*
X0090888Y0015902D01*
X0090850Y0016021D01*
X0090817Y0016141D01*
X0090788Y0016263D01*
X0090762Y0016385D01*
X0090740Y0016508D01*
X0090723Y0016632D01*
X0090709Y0016756D01*
X0090699Y0016880D01*
X0090693Y0017005D01*
X0090691Y0017130D01*
X0068920Y0029472D02*
X0068922Y0029565D01*
X0068928Y0029657D01*
X0068938Y0029749D01*
X0068952Y0029840D01*
X0068969Y0029931D01*
X0068991Y0030021D01*
X0069016Y0030110D01*
X0069045Y0030198D01*
X0069078Y0030284D01*
X0069115Y0030369D01*
X0069155Y0030453D01*
X0069199Y0030534D01*
X0069246Y0030614D01*
X0069296Y0030692D01*
X0069350Y0030767D01*
X0069407Y0030840D01*
X0069467Y0030910D01*
X0069530Y0030978D01*
X0069596Y0031043D01*
X0069664Y0031105D01*
X0069735Y0031165D01*
X0069809Y0031221D01*
X0069885Y0031274D01*
X0069963Y0031323D01*
X0070043Y0031370D01*
X0070125Y0031412D01*
X0070209Y0031452D01*
X0070294Y0031487D01*
X0070381Y0031519D01*
X0070469Y0031548D01*
X0070558Y0031572D01*
X0070648Y0031593D01*
X0070739Y0031609D01*
X0070831Y0031622D01*
X0070923Y0031631D01*
X0071016Y0031636D01*
X0071108Y0031637D01*
X0071201Y0031634D01*
X0071293Y0031627D01*
X0071385Y0031616D01*
X0071476Y0031601D01*
X0071567Y0031583D01*
X0071657Y0031560D01*
X0071745Y0031534D01*
X0071833Y0031504D01*
X0071919Y0031470D01*
X0072003Y0031433D01*
X0072086Y0031391D01*
X0072167Y0031347D01*
X0072247Y0031299D01*
X0072324Y0031248D01*
X0072398Y0031193D01*
X0072471Y0031135D01*
X0072541Y0031075D01*
X0072608Y0031011D01*
X0072672Y0030945D01*
X0072734Y0030875D01*
X0072792Y0030804D01*
X0072847Y0030730D01*
X0072899Y0030653D01*
X0072948Y0030574D01*
X0072994Y0030494D01*
X0073036Y0030411D01*
X0073074Y0030327D01*
X0073109Y0030241D01*
X0073140Y0030154D01*
X0073167Y0030066D01*
X0073190Y0029976D01*
X0073210Y0029886D01*
X0073226Y0029795D01*
X0073238Y0029703D01*
X0073246Y0029611D01*
X0073250Y0029518D01*
X0073250Y0029426D01*
X0073246Y0029333D01*
X0073238Y0029241D01*
X0073226Y0029149D01*
X0073210Y0029058D01*
X0073190Y0028968D01*
X0073167Y0028878D01*
X0073140Y0028790D01*
X0073109Y0028703D01*
X0073074Y0028617D01*
X0073036Y0028533D01*
X0072994Y0028450D01*
X0072948Y0028370D01*
X0072899Y0028291D01*
X0072847Y0028214D01*
X0072792Y0028140D01*
X0072734Y0028069D01*
X0072672Y0027999D01*
X0072608Y0027933D01*
X0072541Y0027869D01*
X0072471Y0027809D01*
X0072398Y0027751D01*
X0072324Y0027696D01*
X0072247Y0027645D01*
X0072168Y0027597D01*
X0072086Y0027553D01*
X0072003Y0027511D01*
X0071919Y0027474D01*
X0071833Y0027440D01*
X0071745Y0027410D01*
X0071657Y0027384D01*
X0071567Y0027361D01*
X0071476Y0027343D01*
X0071385Y0027328D01*
X0071293Y0027317D01*
X0071201Y0027310D01*
X0071108Y0027307D01*
X0071016Y0027308D01*
X0070923Y0027313D01*
X0070831Y0027322D01*
X0070739Y0027335D01*
X0070648Y0027351D01*
X0070558Y0027372D01*
X0070469Y0027396D01*
X0070381Y0027425D01*
X0070294Y0027457D01*
X0070209Y0027492D01*
X0070125Y0027532D01*
X0070043Y0027574D01*
X0069963Y0027621D01*
X0069885Y0027670D01*
X0069809Y0027723D01*
X0069735Y0027779D01*
X0069664Y0027839D01*
X0069596Y0027901D01*
X0069530Y0027966D01*
X0069467Y0028034D01*
X0069407Y0028104D01*
X0069350Y0028177D01*
X0069296Y0028252D01*
X0069246Y0028330D01*
X0069199Y0028410D01*
X0069155Y0028491D01*
X0069115Y0028575D01*
X0069078Y0028660D01*
X0069045Y0028746D01*
X0069016Y0028834D01*
X0068991Y0028923D01*
X0068969Y0029013D01*
X0068952Y0029104D01*
X0068938Y0029195D01*
X0068928Y0029287D01*
X0068922Y0029379D01*
X0068920Y0029472D01*
X0068920Y0047189D02*
X0068922Y0047282D01*
X0068928Y0047374D01*
X0068938Y0047466D01*
X0068952Y0047557D01*
X0068969Y0047648D01*
X0068991Y0047738D01*
X0069016Y0047827D01*
X0069045Y0047915D01*
X0069078Y0048001D01*
X0069115Y0048086D01*
X0069155Y0048170D01*
X0069199Y0048251D01*
X0069246Y0048331D01*
X0069296Y0048409D01*
X0069350Y0048484D01*
X0069407Y0048557D01*
X0069467Y0048627D01*
X0069530Y0048695D01*
X0069596Y0048760D01*
X0069664Y0048822D01*
X0069735Y0048882D01*
X0069809Y0048938D01*
X0069885Y0048991D01*
X0069963Y0049040D01*
X0070043Y0049087D01*
X0070125Y0049129D01*
X0070209Y0049169D01*
X0070294Y0049204D01*
X0070381Y0049236D01*
X0070469Y0049265D01*
X0070558Y0049289D01*
X0070648Y0049310D01*
X0070739Y0049326D01*
X0070831Y0049339D01*
X0070923Y0049348D01*
X0071016Y0049353D01*
X0071108Y0049354D01*
X0071201Y0049351D01*
X0071293Y0049344D01*
X0071385Y0049333D01*
X0071476Y0049318D01*
X0071567Y0049300D01*
X0071657Y0049277D01*
X0071745Y0049251D01*
X0071833Y0049221D01*
X0071919Y0049187D01*
X0072003Y0049150D01*
X0072086Y0049108D01*
X0072167Y0049064D01*
X0072247Y0049016D01*
X0072324Y0048965D01*
X0072398Y0048910D01*
X0072471Y0048852D01*
X0072541Y0048792D01*
X0072608Y0048728D01*
X0072672Y0048662D01*
X0072734Y0048592D01*
X0072792Y0048521D01*
X0072847Y0048447D01*
X0072899Y0048370D01*
X0072948Y0048291D01*
X0072994Y0048211D01*
X0073036Y0048128D01*
X0073074Y0048044D01*
X0073109Y0047958D01*
X0073140Y0047871D01*
X0073167Y0047783D01*
X0073190Y0047693D01*
X0073210Y0047603D01*
X0073226Y0047512D01*
X0073238Y0047420D01*
X0073246Y0047328D01*
X0073250Y0047235D01*
X0073250Y0047143D01*
X0073246Y0047050D01*
X0073238Y0046958D01*
X0073226Y0046866D01*
X0073210Y0046775D01*
X0073190Y0046685D01*
X0073167Y0046595D01*
X0073140Y0046507D01*
X0073109Y0046420D01*
X0073074Y0046334D01*
X0073036Y0046250D01*
X0072994Y0046167D01*
X0072948Y0046087D01*
X0072899Y0046008D01*
X0072847Y0045931D01*
X0072792Y0045857D01*
X0072734Y0045786D01*
X0072672Y0045716D01*
X0072608Y0045650D01*
X0072541Y0045586D01*
X0072471Y0045526D01*
X0072398Y0045468D01*
X0072324Y0045413D01*
X0072247Y0045362D01*
X0072168Y0045314D01*
X0072086Y0045270D01*
X0072003Y0045228D01*
X0071919Y0045191D01*
X0071833Y0045157D01*
X0071745Y0045127D01*
X0071657Y0045101D01*
X0071567Y0045078D01*
X0071476Y0045060D01*
X0071385Y0045045D01*
X0071293Y0045034D01*
X0071201Y0045027D01*
X0071108Y0045024D01*
X0071016Y0045025D01*
X0070923Y0045030D01*
X0070831Y0045039D01*
X0070739Y0045052D01*
X0070648Y0045068D01*
X0070558Y0045089D01*
X0070469Y0045113D01*
X0070381Y0045142D01*
X0070294Y0045174D01*
X0070209Y0045209D01*
X0070125Y0045249D01*
X0070043Y0045291D01*
X0069963Y0045338D01*
X0069885Y0045387D01*
X0069809Y0045440D01*
X0069735Y0045496D01*
X0069664Y0045556D01*
X0069596Y0045618D01*
X0069530Y0045683D01*
X0069467Y0045751D01*
X0069407Y0045821D01*
X0069350Y0045894D01*
X0069296Y0045969D01*
X0069246Y0046047D01*
X0069199Y0046127D01*
X0069155Y0046208D01*
X0069115Y0046292D01*
X0069078Y0046377D01*
X0069045Y0046463D01*
X0069016Y0046551D01*
X0068991Y0046640D01*
X0068969Y0046730D01*
X0068952Y0046821D01*
X0068938Y0046912D01*
X0068928Y0047004D01*
X0068922Y0047096D01*
X0068920Y0047189D01*
X0090691Y0059650D02*
X0090693Y0059775D01*
X0090699Y0059900D01*
X0090709Y0060024D01*
X0090723Y0060148D01*
X0090740Y0060272D01*
X0090762Y0060395D01*
X0090788Y0060517D01*
X0090817Y0060639D01*
X0090850Y0060759D01*
X0090888Y0060878D01*
X0090928Y0060997D01*
X0090973Y0061113D01*
X0091021Y0061228D01*
X0091073Y0061342D01*
X0091129Y0061454D01*
X0091188Y0061564D01*
X0091250Y0061672D01*
X0091316Y0061779D01*
X0091385Y0061883D01*
X0091458Y0061984D01*
X0091533Y0062084D01*
X0091612Y0062181D01*
X0091694Y0062275D01*
X0091779Y0062367D01*
X0091866Y0062456D01*
X0091957Y0062542D01*
X0092050Y0062625D01*
X0092146Y0062706D01*
X0092244Y0062783D01*
X0092344Y0062857D01*
X0092447Y0062928D01*
X0092552Y0062995D01*
X0092660Y0063060D01*
X0092769Y0063120D01*
X0092880Y0063178D01*
X0092993Y0063231D01*
X0093107Y0063281D01*
X0093223Y0063328D01*
X0093340Y0063370D01*
X0093459Y0063409D01*
X0093579Y0063445D01*
X0093700Y0063476D01*
X0093822Y0063504D01*
X0093944Y0063527D01*
X0094068Y0063547D01*
X0094192Y0063563D01*
X0094316Y0063575D01*
X0094441Y0063583D01*
X0094566Y0063587D01*
X0094690Y0063587D01*
X0094815Y0063583D01*
X0094940Y0063575D01*
X0095064Y0063563D01*
X0095188Y0063547D01*
X0095312Y0063527D01*
X0095434Y0063504D01*
X0095556Y0063476D01*
X0095677Y0063445D01*
X0095797Y0063409D01*
X0095916Y0063370D01*
X0096033Y0063328D01*
X0096149Y0063281D01*
X0096263Y0063231D01*
X0096376Y0063178D01*
X0096487Y0063120D01*
X0096597Y0063060D01*
X0096704Y0062995D01*
X0096809Y0062928D01*
X0096912Y0062857D01*
X0097012Y0062783D01*
X0097110Y0062706D01*
X0097206Y0062625D01*
X0097299Y0062542D01*
X0097390Y0062456D01*
X0097477Y0062367D01*
X0097562Y0062275D01*
X0097644Y0062181D01*
X0097723Y0062084D01*
X0097798Y0061984D01*
X0097871Y0061883D01*
X0097940Y0061779D01*
X0098006Y0061672D01*
X0098068Y0061564D01*
X0098127Y0061454D01*
X0098183Y0061342D01*
X0098235Y0061228D01*
X0098283Y0061113D01*
X0098328Y0060997D01*
X0098368Y0060878D01*
X0098406Y0060759D01*
X0098439Y0060639D01*
X0098468Y0060517D01*
X0098494Y0060395D01*
X0098516Y0060272D01*
X0098533Y0060148D01*
X0098547Y0060024D01*
X0098557Y0059900D01*
X0098563Y0059775D01*
X0098565Y0059650D01*
X0098563Y0059525D01*
X0098557Y0059400D01*
X0098547Y0059276D01*
X0098533Y0059152D01*
X0098516Y0059028D01*
X0098494Y0058905D01*
X0098468Y0058783D01*
X0098439Y0058661D01*
X0098406Y0058541D01*
X0098368Y0058422D01*
X0098328Y0058303D01*
X0098283Y0058187D01*
X0098235Y0058072D01*
X0098183Y0057958D01*
X0098127Y0057846D01*
X0098068Y0057736D01*
X0098006Y0057628D01*
X0097940Y0057521D01*
X0097871Y0057417D01*
X0097798Y0057316D01*
X0097723Y0057216D01*
X0097644Y0057119D01*
X0097562Y0057025D01*
X0097477Y0056933D01*
X0097390Y0056844D01*
X0097299Y0056758D01*
X0097206Y0056675D01*
X0097110Y0056594D01*
X0097012Y0056517D01*
X0096912Y0056443D01*
X0096809Y0056372D01*
X0096704Y0056305D01*
X0096596Y0056240D01*
X0096487Y0056180D01*
X0096376Y0056122D01*
X0096263Y0056069D01*
X0096149Y0056019D01*
X0096033Y0055972D01*
X0095916Y0055930D01*
X0095797Y0055891D01*
X0095677Y0055855D01*
X0095556Y0055824D01*
X0095434Y0055796D01*
X0095312Y0055773D01*
X0095188Y0055753D01*
X0095064Y0055737D01*
X0094940Y0055725D01*
X0094815Y0055717D01*
X0094690Y0055713D01*
X0094566Y0055713D01*
X0094441Y0055717D01*
X0094316Y0055725D01*
X0094192Y0055737D01*
X0094068Y0055753D01*
X0093944Y0055773D01*
X0093822Y0055796D01*
X0093700Y0055824D01*
X0093579Y0055855D01*
X0093459Y0055891D01*
X0093340Y0055930D01*
X0093223Y0055972D01*
X0093107Y0056019D01*
X0092993Y0056069D01*
X0092880Y0056122D01*
X0092769Y0056180D01*
X0092659Y0056240D01*
X0092552Y0056305D01*
X0092447Y0056372D01*
X0092344Y0056443D01*
X0092244Y0056517D01*
X0092146Y0056594D01*
X0092050Y0056675D01*
X0091957Y0056758D01*
X0091866Y0056844D01*
X0091779Y0056933D01*
X0091694Y0057025D01*
X0091612Y0057119D01*
X0091533Y0057216D01*
X0091458Y0057316D01*
X0091385Y0057417D01*
X0091316Y0057521D01*
X0091250Y0057628D01*
X0091188Y0057736D01*
X0091129Y0057846D01*
X0091073Y0057958D01*
X0091021Y0058072D01*
X0090973Y0058187D01*
X0090928Y0058303D01*
X0090888Y0058422D01*
X0090850Y0058541D01*
X0090817Y0058661D01*
X0090788Y0058783D01*
X0090762Y0058905D01*
X0090740Y0059028D01*
X0090723Y0059152D01*
X0090709Y0059276D01*
X0090699Y0059400D01*
X0090693Y0059525D01*
X0090691Y0059650D01*
D11*
X0109857Y0025831D03*
X0116746Y0025831D03*
X0116746Y0018831D03*
X0109857Y0018831D03*
D12*
X0112802Y0051886D03*
X0103802Y0051886D03*
X0103802Y0058776D03*
X0112802Y0058776D03*
X0161302Y0061776D03*
X0167802Y0061776D03*
X0167802Y0054886D03*
X0161302Y0054886D03*
D13*
X0096074Y0052934D02*
X0096074Y0050570D01*
X0092530Y0050570D01*
X0092530Y0052934D01*
X0096074Y0052934D01*
X0096074Y0051356D02*
X0092530Y0051356D01*
X0092530Y0052142D02*
X0096074Y0052142D01*
X0096074Y0052928D02*
X0092530Y0052928D01*
X0096074Y0043091D02*
X0096074Y0040727D01*
X0092530Y0040727D01*
X0092530Y0043091D01*
X0096074Y0043091D01*
X0096074Y0041513D02*
X0092530Y0041513D01*
X0092530Y0042299D02*
X0096074Y0042299D01*
X0096074Y0043085D02*
X0092530Y0043085D01*
D14*
X0128302Y0021831D03*
X0128302Y0014831D03*
D15*
X0109148Y0035831D03*
X0102455Y0035831D03*
X0141955Y0049331D03*
X0148648Y0049331D03*
X0148648Y0057331D03*
X0141955Y0057331D03*
D16*
X0082802Y0056571D03*
X0082802Y0049091D03*
D17*
X0075302Y0061331D02*
X0066302Y0061331D01*
X0066302Y0015331D02*
X0075302Y0015331D01*
D18*
X0176802Y0034331D03*
X0176802Y0039331D03*
X0176802Y0044331D03*
X0176802Y0049331D03*
X0176802Y0054331D03*
X0176802Y0059331D03*
D19*
X0168802Y0041677D03*
X0160302Y0041677D03*
X0160302Y0034984D03*
X0168802Y0034984D03*
D20*
X0168802Y0034831D01*
X0160402Y0034831D01*
X0160302Y0034984D01*
X0157048Y0034984D01*
X0155202Y0036831D01*
X0155202Y0040831D01*
X0141402Y0040831D01*
X0136902Y0045331D01*
X0136802Y0045331D01*
X0136802Y0045631D01*
X0136502Y0045331D01*
X0126302Y0045331D01*
X0119746Y0051886D01*
X0112802Y0051886D01*
X0112802Y0041631D01*
X0112202Y0041031D01*
X0111202Y0042031D01*
X0112202Y0041031D02*
X0109202Y0038031D01*
X0109202Y0036031D01*
X0109148Y0035831D01*
X0100002Y0042031D02*
X0100002Y0052031D01*
X0103602Y0052031D01*
X0103802Y0051886D01*
X0100002Y0052031D02*
X0094402Y0052031D01*
X0094302Y0051752D01*
X0089302Y0053831D02*
X0089302Y0043331D01*
X0090723Y0041909D01*
X0094302Y0041909D01*
X0082802Y0049091D02*
X0082802Y0029631D01*
X0082402Y0029231D01*
X0089302Y0053831D02*
X0086302Y0056831D01*
X0083061Y0056831D01*
X0082802Y0056571D01*
X0155202Y0048431D02*
X0155202Y0040831D01*
X0155202Y0048431D02*
X0160402Y0053631D01*
X0161302Y0054886D01*
X0161602Y0054831D01*
X0167602Y0054831D01*
X0167802Y0054886D01*
X0169202Y0054431D01*
X0170002Y0054431D01*
X0174802Y0049631D01*
X0176802Y0049631D01*
X0176802Y0049331D01*
D21*
X0136802Y0045631D03*
X0111202Y0042031D03*
X0100002Y0042031D03*
X0082402Y0029231D03*
D22*
X0086652Y0031121D02*
X0087052Y0030156D01*
X0087052Y0028306D01*
X0086344Y0026597D01*
X0085036Y0025289D01*
X0083327Y0024581D01*
X0081477Y0024581D01*
X0079768Y0025289D01*
X0078459Y0026597D01*
X0077752Y0028306D01*
X0077752Y0030156D01*
X0078459Y0031865D01*
X0078952Y0032357D01*
X0078952Y0044281D01*
X0078917Y0044281D01*
X0077599Y0045600D01*
X0077599Y0052582D01*
X0077848Y0052831D01*
X0077599Y0053080D01*
X0077599Y0057170D01*
X0077125Y0056929D01*
X0076414Y0056698D01*
X0075675Y0056581D01*
X0070802Y0056581D01*
X0070802Y0061331D01*
X0070802Y0055231D01*
X0071602Y0054431D01*
X0070802Y0053631D01*
X0071602Y0054431D02*
X0077002Y0049031D01*
X0077002Y0027331D01*
X0079202Y0025631D01*
X0079602Y0024431D01*
X0109702Y0024431D01*
X0110002Y0024731D01*
X0110002Y0028031D01*
X0109857Y0028320D02*
X0109857Y0028320D01*
X0110002Y0029231D02*
X0110002Y0029531D01*
X0111302Y0030831D01*
X0115802Y0030831D01*
X0117202Y0032231D01*
X0117202Y0040531D01*
X0116630Y0040813D02*
X0135975Y0040813D01*
X0135758Y0041030D02*
X0134670Y0041481D01*
X0125536Y0041481D01*
X0124121Y0042067D01*
X0123038Y0043150D01*
X0118152Y0048036D01*
X0116652Y0048036D01*
X0116652Y0040865D01*
X0116065Y0039450D01*
X0115465Y0038850D01*
X0114382Y0037767D01*
X0113367Y0036751D01*
X0113367Y0032733D01*
X0112049Y0031415D01*
X0106248Y0031415D01*
X0105802Y0031861D01*
X0105356Y0031415D01*
X0099555Y0031415D01*
X0098691Y0032279D01*
X0097488Y0031781D01*
X0096115Y0031781D01*
X0094847Y0032306D01*
X0093877Y0033276D01*
X0093352Y0034544D01*
X0093352Y0035917D01*
X0093877Y0037185D01*
X0094751Y0038059D01*
X0089957Y0038059D01*
X0088542Y0038646D01*
X0087121Y0040067D01*
X0087121Y0040067D01*
X0086652Y0040536D01*
X0086652Y0031121D01*
X0086777Y0030819D02*
X0145999Y0030819D01*
X0145849Y0030981D02*
X0150349Y0026123D01*
X0150370Y0026073D01*
X0150720Y0025723D01*
X0151056Y0025360D01*
X0151105Y0025338D01*
X0151144Y0025299D01*
X0151601Y0025110D01*
X0152050Y0024904D01*
X0152104Y0024902D01*
X0152155Y0024881D01*
X0152649Y0024881D01*
X0153143Y0024862D01*
X0153194Y0024881D01*
X0171473Y0024881D01*
X0171647Y0024706D01*
X0172915Y0024181D01*
X0174288Y0024181D01*
X0175556Y0024706D01*
X0176526Y0025676D01*
X0177052Y0026944D01*
X0177052Y0028317D01*
X0176526Y0029585D01*
X0175999Y0030112D01*
X0177599Y0030112D01*
X0177599Y0014081D01*
X0132333Y0014081D01*
X0132333Y0015633D01*
X0131719Y0017114D01*
X0130585Y0018248D01*
X0130386Y0018331D01*
X0130585Y0018413D01*
X0131719Y0019547D01*
X0132333Y0021029D01*
X0132333Y0022633D01*
X0131719Y0024114D01*
X0130585Y0025248D01*
X0129103Y0025862D01*
X0128160Y0025862D01*
X0125859Y0028162D01*
X0124849Y0028581D01*
X0121063Y0028581D01*
X0121063Y0028889D01*
X0119745Y0030207D01*
X0113748Y0030207D01*
X0113301Y0029760D01*
X0112792Y0030053D01*
X0112220Y0030207D01*
X0109857Y0030207D01*
X0109857Y0025831D01*
X0109857Y0025831D01*
X0109857Y0030207D01*
X0107494Y0030207D01*
X0106921Y0030053D01*
X0106408Y0029757D01*
X0105989Y0029338D01*
X0105693Y0028825D01*
X0105540Y0028253D01*
X0105540Y0025831D01*
X0109857Y0025831D01*
X0109802Y0025776D01*
X0109802Y0024331D01*
X0109802Y0018886D01*
X0109857Y0018831D01*
X0109857Y0018831D01*
X0109857Y0025831D01*
X0110002Y0029231D01*
X0105558Y0028320D02*
X0087052Y0028320D01*
X0085569Y0025822D02*
X0105540Y0025822D01*
X0105540Y0025831D02*
X0105540Y0023409D01*
X0105693Y0022836D01*
X0105985Y0022331D01*
X0105693Y0021825D01*
X0105540Y0021253D01*
X0105540Y0018831D01*
X0109857Y0018831D01*
X0109857Y0023207D01*
X0109857Y0025831D01*
X0109857Y0025831D01*
X0109857Y0025831D01*
X0105540Y0025831D01*
X0109702Y0024431D02*
X0109802Y0024331D01*
X0109857Y0023323D02*
X0109857Y0023323D01*
X0109857Y0020825D02*
X0109857Y0020825D01*
X0110002Y0020031D02*
X0109857Y0018831D01*
X0109802Y0019886D01*
X0109857Y0018831D02*
X0109857Y0018831D01*
X0109857Y0014455D01*
X0112220Y0014455D01*
X0112792Y0014608D01*
X0113301Y0014902D01*
X0113748Y0014455D01*
X0116057Y0014455D01*
X0115683Y0014081D01*
X0101144Y0014081D01*
X0101815Y0015700D01*
X0101815Y0018559D01*
X0100721Y0021201D01*
X0098699Y0023223D01*
X0096058Y0024317D01*
X0093199Y0024317D01*
X0090557Y0023223D01*
X0088535Y0021201D01*
X0087441Y0018559D01*
X0087441Y0015700D01*
X0088112Y0014081D01*
X0079890Y0014081D01*
X0079935Y0014218D01*
X0080052Y0014957D01*
X0080052Y0015331D01*
X0080052Y0015705D01*
X0079935Y0016443D01*
X0079704Y0017154D01*
X0079364Y0017820D01*
X0078925Y0018425D01*
X0078396Y0018954D01*
X0077791Y0019393D01*
X0077125Y0019733D01*
X0076414Y0019964D01*
X0075675Y0020081D01*
X0070802Y0020081D01*
X0070802Y0015331D01*
X0080052Y0015331D01*
X0070802Y0015331D01*
X0070802Y0015331D01*
X0070802Y0015331D01*
X0070802Y0015631D01*
X0079602Y0024431D01*
X0079234Y0025822D02*
X0075093Y0025822D01*
X0075676Y0026405D02*
X0076500Y0028395D01*
X0076500Y0030550D01*
X0075676Y0032540D01*
X0074153Y0034063D01*
X0072162Y0034888D01*
X0070008Y0034888D01*
X0068017Y0034063D01*
X0066494Y0032540D01*
X0065670Y0030550D01*
X0065670Y0028395D01*
X0066494Y0026405D01*
X0068017Y0024882D01*
X0070008Y0024057D01*
X0072162Y0024057D01*
X0074153Y0024882D01*
X0075676Y0026405D01*
X0076469Y0028320D02*
X0077752Y0028320D01*
X0078026Y0030819D02*
X0076389Y0030819D01*
X0074899Y0033317D02*
X0078952Y0033317D01*
X0078952Y0035816D02*
X0062052Y0035816D01*
X0062052Y0038314D02*
X0078952Y0038314D01*
X0078952Y0040813D02*
X0062052Y0040813D01*
X0062052Y0043311D02*
X0067304Y0043311D01*
X0068017Y0042598D02*
X0066494Y0044121D01*
X0065670Y0046112D01*
X0065670Y0048266D01*
X0066494Y0050257D01*
X0068017Y0051780D01*
X0070008Y0052604D01*
X0072162Y0052604D01*
X0074153Y0051780D01*
X0075676Y0050257D01*
X0076500Y0048266D01*
X0076500Y0046112D01*
X0075676Y0044121D01*
X0074153Y0042598D01*
X0072162Y0041774D01*
X0070008Y0041774D01*
X0068017Y0042598D01*
X0074866Y0043311D02*
X0078952Y0043311D01*
X0077599Y0045810D02*
X0076375Y0045810D01*
X0076483Y0048308D02*
X0077599Y0048308D01*
X0077599Y0050807D02*
X0075126Y0050807D01*
X0077599Y0053305D02*
X0062052Y0053305D01*
X0062052Y0050807D02*
X0067044Y0050807D01*
X0065687Y0048308D02*
X0062052Y0048308D01*
X0062052Y0045810D02*
X0065795Y0045810D01*
X0086652Y0038314D02*
X0089342Y0038314D01*
X0086652Y0035816D02*
X0093352Y0035816D01*
X0093860Y0033317D02*
X0086652Y0033317D01*
X0104295Y0040246D02*
X0104652Y0041106D01*
X0104652Y0042956D01*
X0103944Y0044665D01*
X0103852Y0044757D01*
X0103852Y0047569D01*
X0106860Y0047569D01*
X0108178Y0048887D01*
X0108178Y0054885D01*
X0107731Y0055332D01*
X0108024Y0055840D01*
X0108178Y0056412D01*
X0108178Y0058776D01*
X0108178Y0061139D01*
X0108024Y0061711D01*
X0107728Y0062224D01*
X0107309Y0062643D01*
X0107212Y0062699D01*
X0109391Y0062699D01*
X0109294Y0062643D01*
X0108875Y0062224D01*
X0108579Y0061711D01*
X0108426Y0061139D01*
X0108426Y0058776D01*
X0112801Y0058776D01*
X0112801Y0058776D01*
X0112802Y0058776D02*
X0112802Y0062699D01*
X0112802Y0058776D01*
X0117178Y0058776D01*
X0117178Y0060387D01*
X0118715Y0059750D01*
X0120935Y0059750D01*
X0122986Y0060600D01*
X0124556Y0062169D01*
X0124776Y0062699D01*
X0156926Y0062699D01*
X0156926Y0061776D01*
X0161301Y0061776D01*
X0161301Y0061776D01*
X0156926Y0061776D01*
X0156926Y0059481D01*
X0156215Y0059481D01*
X0154947Y0058955D01*
X0154773Y0058781D01*
X0152867Y0058781D01*
X0152867Y0060428D01*
X0151549Y0061746D01*
X0145748Y0061746D01*
X0145302Y0061300D01*
X0144856Y0061746D01*
X0139055Y0061746D01*
X0137784Y0060475D01*
X0137288Y0060681D01*
X0135915Y0060681D01*
X0134647Y0060155D01*
X0133677Y0059185D01*
X0133152Y0057917D01*
X0133152Y0056544D01*
X0133677Y0055276D01*
X0133778Y0055175D01*
X0133247Y0054955D01*
X0132277Y0053985D01*
X0131752Y0052717D01*
X0131752Y0051344D01*
X0132277Y0050076D01*
X0133173Y0049181D01*
X0127896Y0049181D01*
X0121927Y0055150D01*
X0120512Y0055736D01*
X0116964Y0055736D01*
X0117024Y0055840D01*
X0117178Y0056412D01*
X0117178Y0058776D01*
X0112802Y0058776D01*
X0112802Y0058776D01*
X0112802Y0058776D01*
X0114002Y0059231D01*
X0123202Y0059231D01*
X0123202Y0058031D01*
X0123202Y0059231D02*
X0129902Y0059231D01*
X0132702Y0062031D01*
X0160402Y0062031D01*
X0161302Y0061776D01*
X0167801Y0061776D01*
X0167801Y0061776D01*
X0163426Y0061776D01*
X0161302Y0061776D01*
X0161302Y0061776D01*
X0161602Y0062031D01*
X0167602Y0062031D01*
X0167802Y0061776D01*
X0172178Y0061776D01*
X0172178Y0062699D01*
X0174260Y0062699D01*
X0174053Y0062548D01*
X0173584Y0062079D01*
X0173194Y0061542D01*
X0172892Y0060950D01*
X0172687Y0060319D01*
X0172583Y0059663D01*
X0172583Y0059331D01*
X0176801Y0059331D01*
X0176801Y0059331D01*
X0176802Y0059331D02*
X0176802Y0062699D01*
X0176802Y0059331D01*
X0176802Y0059331D01*
X0176802Y0059631D01*
X0175202Y0061231D01*
X0168802Y0061231D01*
X0167802Y0061776D01*
X0167802Y0061776D01*
X0172178Y0061776D01*
X0172178Y0059412D01*
X0172024Y0058840D01*
X0171731Y0058332D01*
X0172178Y0057885D01*
X0172178Y0057697D01*
X0172182Y0057695D01*
X0173205Y0056672D01*
X0173225Y0056720D01*
X0173375Y0056870D01*
X0173194Y0057120D01*
X0172892Y0057711D01*
X0172687Y0058343D01*
X0172583Y0058999D01*
X0172583Y0059331D01*
X0176801Y0059331D01*
X0176802Y0060801D02*
X0176802Y0060801D01*
X0176802Y0062699D02*
X0176802Y0062699D01*
X0172844Y0060801D02*
X0172178Y0060801D01*
X0171760Y0058302D02*
X0172700Y0058302D01*
X0156926Y0060801D02*
X0152494Y0060801D01*
X0138110Y0060801D02*
X0123188Y0060801D01*
X0117178Y0058302D02*
X0133311Y0058302D01*
X0133458Y0055804D02*
X0117003Y0055804D01*
X0112802Y0058776D02*
X0112802Y0058831D01*
X0104002Y0058831D01*
X0103802Y0058776D01*
X0108178Y0058776D01*
X0103802Y0058776D01*
X0103802Y0058776D01*
X0108178Y0058302D02*
X0108426Y0058302D01*
X0108426Y0058776D02*
X0108426Y0056412D01*
X0108579Y0055840D01*
X0108873Y0055332D01*
X0108426Y0054885D01*
X0108426Y0048887D01*
X0108952Y0048361D01*
X0108952Y0046132D01*
X0108568Y0045973D01*
X0107259Y0044665D01*
X0106552Y0042956D01*
X0106552Y0041106D01*
X0106634Y0040908D01*
X0105938Y0040212D01*
X0105777Y0039824D01*
X0105356Y0040246D01*
X0104295Y0040246D01*
X0104530Y0040813D02*
X0106539Y0040813D01*
X0106699Y0043311D02*
X0104504Y0043311D01*
X0103852Y0045810D02*
X0108405Y0045810D01*
X0108952Y0048308D02*
X0107599Y0048308D01*
X0108178Y0050807D02*
X0108426Y0050807D01*
X0108426Y0053305D02*
X0108178Y0053305D01*
X0108003Y0055804D02*
X0108600Y0055804D01*
X0108426Y0058776D02*
X0112801Y0058776D01*
X0112802Y0060801D02*
X0112802Y0060801D01*
X0112802Y0062699D02*
X0112802Y0062699D01*
X0108426Y0060801D02*
X0108178Y0060801D01*
X0123772Y0053305D02*
X0131995Y0053305D01*
X0131974Y0050807D02*
X0126270Y0050807D01*
X0120378Y0045810D02*
X0116652Y0045810D01*
X0116652Y0043311D02*
X0122876Y0043311D01*
X0114930Y0038314D02*
X0138473Y0038314D01*
X0139221Y0037567D02*
X0140552Y0037016D01*
X0140552Y0036144D01*
X0141077Y0034876D01*
X0142047Y0033906D01*
X0143058Y0033487D01*
X0143477Y0032476D01*
X0144447Y0031506D01*
X0145715Y0030981D01*
X0145849Y0030981D01*
X0148314Y0028320D02*
X0125477Y0028320D01*
X0129200Y0025822D02*
X0150621Y0025822D01*
X0143129Y0033317D02*
X0113367Y0033317D01*
X0113367Y0035816D02*
X0140688Y0035816D01*
X0139221Y0037567D02*
X0135758Y0041030D01*
X0109857Y0025822D02*
X0109857Y0025822D01*
X0105563Y0023323D02*
X0098457Y0023323D01*
X0100877Y0020825D02*
X0105540Y0020825D01*
X0105540Y0018831D02*
X0105540Y0016409D01*
X0105693Y0015836D01*
X0105989Y0015323D01*
X0106408Y0014904D01*
X0106921Y0014608D01*
X0107494Y0014455D01*
X0109857Y0014455D01*
X0109857Y0018831D01*
X0109857Y0018831D01*
X0105540Y0018831D01*
X0105540Y0018326D02*
X0101815Y0018326D01*
X0101815Y0015828D02*
X0105698Y0015828D01*
X0109857Y0015828D02*
X0109857Y0015828D01*
X0109857Y0018326D02*
X0109857Y0018326D01*
X0090800Y0023323D02*
X0062052Y0023323D01*
X0062052Y0020825D02*
X0088380Y0020825D01*
X0087441Y0018326D02*
X0078997Y0018326D01*
X0080032Y0015828D02*
X0087441Y0015828D01*
X0070802Y0015828D02*
X0070802Y0015828D01*
X0070802Y0015331D02*
X0070802Y0020081D01*
X0065928Y0020081D01*
X0065189Y0019964D01*
X0064478Y0019733D01*
X0063812Y0019393D01*
X0063207Y0018954D01*
X0062678Y0018425D01*
X0062239Y0017820D01*
X0062052Y0017452D01*
X0062052Y0059209D01*
X0062239Y0058841D01*
X0062678Y0058236D01*
X0063207Y0057708D01*
X0063812Y0057268D01*
X0064478Y0056929D01*
X0065189Y0056698D01*
X0065928Y0056581D01*
X0070802Y0056581D01*
X0070802Y0061331D01*
X0070802Y0061331D01*
X0070802Y0060801D02*
X0070802Y0060801D01*
X0070802Y0058302D02*
X0070802Y0058302D01*
X0077599Y0055804D02*
X0062052Y0055804D01*
X0062052Y0058302D02*
X0062630Y0058302D01*
X0062052Y0033317D02*
X0067271Y0033317D01*
X0065781Y0030819D02*
X0062052Y0030819D01*
X0062052Y0028320D02*
X0065701Y0028320D01*
X0067077Y0025822D02*
X0062052Y0025822D01*
X0062052Y0018326D02*
X0062607Y0018326D01*
X0070802Y0018326D02*
X0070802Y0018326D01*
X0130396Y0018326D02*
X0177599Y0018326D01*
X0177599Y0020825D02*
X0132248Y0020825D01*
X0132047Y0023323D02*
X0177599Y0023323D01*
X0177599Y0025822D02*
X0176587Y0025822D01*
X0177050Y0028320D02*
X0177599Y0028320D01*
X0177599Y0015828D02*
X0132252Y0015828D01*
D23*
X0117202Y0040531D03*
X0123202Y0058031D03*
X0070802Y0053631D03*
D24*
X0102002Y0035231D02*
X0102402Y0035631D01*
X0102455Y0035831D01*
X0102002Y0035231D02*
X0096802Y0035231D01*
X0116746Y0025831D02*
X0124302Y0025831D01*
X0128302Y0021831D01*
X0128002Y0022031D01*
X0123202Y0019631D02*
X0128002Y0014831D01*
X0128302Y0014831D01*
X0123202Y0019631D02*
X0116802Y0019631D01*
X0116746Y0018831D01*
X0146402Y0034431D02*
X0152702Y0027631D01*
X0173602Y0027631D01*
X0170602Y0030231D02*
X0173602Y0033231D01*
X0173602Y0036431D01*
X0176402Y0039231D01*
X0176802Y0039331D01*
X0176802Y0039631D01*
X0173602Y0042831D01*
X0173602Y0044631D01*
X0169802Y0048431D01*
X0161202Y0048431D01*
X0161102Y0045631D02*
X0160302Y0044831D01*
X0160302Y0041677D01*
X0164802Y0039231D02*
X0166402Y0039231D01*
X0168802Y0041631D01*
X0168802Y0041677D01*
X0168002Y0045631D02*
X0161102Y0045631D01*
X0148648Y0049331D02*
X0148402Y0049231D01*
X0144002Y0044831D01*
X0141955Y0049331D02*
X0141602Y0049631D01*
X0137602Y0049631D01*
X0135202Y0052031D01*
X0136602Y0057231D02*
X0141602Y0057231D01*
X0141955Y0057331D01*
X0148648Y0057331D02*
X0148802Y0057231D01*
X0150002Y0056031D01*
X0156902Y0056031D01*
X0149502Y0036831D02*
X0144002Y0036831D01*
X0149502Y0036831D02*
X0156102Y0030231D01*
X0170602Y0030231D01*
D25*
X0173602Y0027631D03*
X0164802Y0039231D03*
X0168002Y0045631D03*
X0161202Y0048431D03*
X0156902Y0056031D03*
X0136602Y0057231D03*
X0135202Y0052031D03*
X0144002Y0044831D03*
X0144002Y0036831D03*
X0146402Y0034431D03*
X0096802Y0035231D03*
M02*
