G75*
%MOIN*%
%OFA0B0*%
%FSLAX25Y25*%
%IPPOS*%
%LPD*%
%AMOC8*
5,1,8,0,0,1.08239X$1,22.5*
%
%ADD10C,0.00000*%
%ADD11R,0.04134X0.04252*%
%ADD12R,0.04252X0.04134*%
%ADD13R,0.05906X0.05118*%
%ADD14C,0.00787*%
%ADD15R,0.06000X0.02500*%
%ADD16C,0.03200*%
%ADD17R,0.07087X0.06299*%
%ADD18C,0.05000*%
%ADD19R,0.03937X0.04331*%
%ADD20C,0.07400*%
%ADD21C,0.04134*%
%ADD22C,0.04800*%
%ADD23C,0.03200*%
%ADD24C,0.02500*%
%ADD25C,0.03750*%
%ADD26C,0.01000*%
%ADD27C,0.02400*%
D10*
X0058802Y0014831D02*
X0061802Y0011831D01*
X0180849Y0011831D01*
X0180849Y0066949D01*
X0061802Y0066949D01*
X0058802Y0063949D01*
X0058802Y0014831D01*
X0088691Y0018130D02*
X0088693Y0018255D01*
X0088699Y0018380D01*
X0088709Y0018504D01*
X0088723Y0018628D01*
X0088740Y0018752D01*
X0088762Y0018875D01*
X0088788Y0018997D01*
X0088817Y0019119D01*
X0088850Y0019239D01*
X0088888Y0019358D01*
X0088928Y0019477D01*
X0088973Y0019593D01*
X0089021Y0019708D01*
X0089073Y0019822D01*
X0089129Y0019934D01*
X0089188Y0020044D01*
X0089250Y0020152D01*
X0089316Y0020259D01*
X0089385Y0020363D01*
X0089458Y0020464D01*
X0089533Y0020564D01*
X0089612Y0020661D01*
X0089694Y0020755D01*
X0089779Y0020847D01*
X0089866Y0020936D01*
X0089957Y0021022D01*
X0090050Y0021105D01*
X0090146Y0021186D01*
X0090244Y0021263D01*
X0090344Y0021337D01*
X0090447Y0021408D01*
X0090552Y0021475D01*
X0090660Y0021540D01*
X0090769Y0021600D01*
X0090880Y0021658D01*
X0090993Y0021711D01*
X0091107Y0021761D01*
X0091223Y0021808D01*
X0091340Y0021850D01*
X0091459Y0021889D01*
X0091579Y0021925D01*
X0091700Y0021956D01*
X0091822Y0021984D01*
X0091944Y0022007D01*
X0092068Y0022027D01*
X0092192Y0022043D01*
X0092316Y0022055D01*
X0092441Y0022063D01*
X0092566Y0022067D01*
X0092690Y0022067D01*
X0092815Y0022063D01*
X0092940Y0022055D01*
X0093064Y0022043D01*
X0093188Y0022027D01*
X0093312Y0022007D01*
X0093434Y0021984D01*
X0093556Y0021956D01*
X0093677Y0021925D01*
X0093797Y0021889D01*
X0093916Y0021850D01*
X0094033Y0021808D01*
X0094149Y0021761D01*
X0094263Y0021711D01*
X0094376Y0021658D01*
X0094487Y0021600D01*
X0094597Y0021540D01*
X0094704Y0021475D01*
X0094809Y0021408D01*
X0094912Y0021337D01*
X0095012Y0021263D01*
X0095110Y0021186D01*
X0095206Y0021105D01*
X0095299Y0021022D01*
X0095390Y0020936D01*
X0095477Y0020847D01*
X0095562Y0020755D01*
X0095644Y0020661D01*
X0095723Y0020564D01*
X0095798Y0020464D01*
X0095871Y0020363D01*
X0095940Y0020259D01*
X0096006Y0020152D01*
X0096068Y0020044D01*
X0096127Y0019934D01*
X0096183Y0019822D01*
X0096235Y0019708D01*
X0096283Y0019593D01*
X0096328Y0019477D01*
X0096368Y0019358D01*
X0096406Y0019239D01*
X0096439Y0019119D01*
X0096468Y0018997D01*
X0096494Y0018875D01*
X0096516Y0018752D01*
X0096533Y0018628D01*
X0096547Y0018504D01*
X0096557Y0018380D01*
X0096563Y0018255D01*
X0096565Y0018130D01*
X0096563Y0018005D01*
X0096557Y0017880D01*
X0096547Y0017756D01*
X0096533Y0017632D01*
X0096516Y0017508D01*
X0096494Y0017385D01*
X0096468Y0017263D01*
X0096439Y0017141D01*
X0096406Y0017021D01*
X0096368Y0016902D01*
X0096328Y0016783D01*
X0096283Y0016667D01*
X0096235Y0016552D01*
X0096183Y0016438D01*
X0096127Y0016326D01*
X0096068Y0016216D01*
X0096006Y0016108D01*
X0095940Y0016001D01*
X0095871Y0015897D01*
X0095798Y0015796D01*
X0095723Y0015696D01*
X0095644Y0015599D01*
X0095562Y0015505D01*
X0095477Y0015413D01*
X0095390Y0015324D01*
X0095299Y0015238D01*
X0095206Y0015155D01*
X0095110Y0015074D01*
X0095012Y0014997D01*
X0094912Y0014923D01*
X0094809Y0014852D01*
X0094704Y0014785D01*
X0094596Y0014720D01*
X0094487Y0014660D01*
X0094376Y0014602D01*
X0094263Y0014549D01*
X0094149Y0014499D01*
X0094033Y0014452D01*
X0093916Y0014410D01*
X0093797Y0014371D01*
X0093677Y0014335D01*
X0093556Y0014304D01*
X0093434Y0014276D01*
X0093312Y0014253D01*
X0093188Y0014233D01*
X0093064Y0014217D01*
X0092940Y0014205D01*
X0092815Y0014197D01*
X0092690Y0014193D01*
X0092566Y0014193D01*
X0092441Y0014197D01*
X0092316Y0014205D01*
X0092192Y0014217D01*
X0092068Y0014233D01*
X0091944Y0014253D01*
X0091822Y0014276D01*
X0091700Y0014304D01*
X0091579Y0014335D01*
X0091459Y0014371D01*
X0091340Y0014410D01*
X0091223Y0014452D01*
X0091107Y0014499D01*
X0090993Y0014549D01*
X0090880Y0014602D01*
X0090769Y0014660D01*
X0090659Y0014720D01*
X0090552Y0014785D01*
X0090447Y0014852D01*
X0090344Y0014923D01*
X0090244Y0014997D01*
X0090146Y0015074D01*
X0090050Y0015155D01*
X0089957Y0015238D01*
X0089866Y0015324D01*
X0089779Y0015413D01*
X0089694Y0015505D01*
X0089612Y0015599D01*
X0089533Y0015696D01*
X0089458Y0015796D01*
X0089385Y0015897D01*
X0089316Y0016001D01*
X0089250Y0016108D01*
X0089188Y0016216D01*
X0089129Y0016326D01*
X0089073Y0016438D01*
X0089021Y0016552D01*
X0088973Y0016667D01*
X0088928Y0016783D01*
X0088888Y0016902D01*
X0088850Y0017021D01*
X0088817Y0017141D01*
X0088788Y0017263D01*
X0088762Y0017385D01*
X0088740Y0017508D01*
X0088723Y0017632D01*
X0088709Y0017756D01*
X0088699Y0017880D01*
X0088693Y0018005D01*
X0088691Y0018130D01*
X0068920Y0030472D02*
X0068922Y0030565D01*
X0068928Y0030657D01*
X0068938Y0030749D01*
X0068952Y0030840D01*
X0068969Y0030931D01*
X0068991Y0031021D01*
X0069016Y0031110D01*
X0069045Y0031198D01*
X0069078Y0031284D01*
X0069115Y0031369D01*
X0069155Y0031453D01*
X0069199Y0031534D01*
X0069246Y0031614D01*
X0069296Y0031692D01*
X0069350Y0031767D01*
X0069407Y0031840D01*
X0069467Y0031910D01*
X0069530Y0031978D01*
X0069596Y0032043D01*
X0069664Y0032105D01*
X0069735Y0032165D01*
X0069809Y0032221D01*
X0069885Y0032274D01*
X0069963Y0032323D01*
X0070043Y0032370D01*
X0070125Y0032412D01*
X0070209Y0032452D01*
X0070294Y0032487D01*
X0070381Y0032519D01*
X0070469Y0032548D01*
X0070558Y0032572D01*
X0070648Y0032593D01*
X0070739Y0032609D01*
X0070831Y0032622D01*
X0070923Y0032631D01*
X0071016Y0032636D01*
X0071108Y0032637D01*
X0071201Y0032634D01*
X0071293Y0032627D01*
X0071385Y0032616D01*
X0071476Y0032601D01*
X0071567Y0032583D01*
X0071657Y0032560D01*
X0071745Y0032534D01*
X0071833Y0032504D01*
X0071919Y0032470D01*
X0072003Y0032433D01*
X0072086Y0032391D01*
X0072167Y0032347D01*
X0072247Y0032299D01*
X0072324Y0032248D01*
X0072398Y0032193D01*
X0072471Y0032135D01*
X0072541Y0032075D01*
X0072608Y0032011D01*
X0072672Y0031945D01*
X0072734Y0031875D01*
X0072792Y0031804D01*
X0072847Y0031730D01*
X0072899Y0031653D01*
X0072948Y0031574D01*
X0072994Y0031494D01*
X0073036Y0031411D01*
X0073074Y0031327D01*
X0073109Y0031241D01*
X0073140Y0031154D01*
X0073167Y0031066D01*
X0073190Y0030976D01*
X0073210Y0030886D01*
X0073226Y0030795D01*
X0073238Y0030703D01*
X0073246Y0030611D01*
X0073250Y0030518D01*
X0073250Y0030426D01*
X0073246Y0030333D01*
X0073238Y0030241D01*
X0073226Y0030149D01*
X0073210Y0030058D01*
X0073190Y0029968D01*
X0073167Y0029878D01*
X0073140Y0029790D01*
X0073109Y0029703D01*
X0073074Y0029617D01*
X0073036Y0029533D01*
X0072994Y0029450D01*
X0072948Y0029370D01*
X0072899Y0029291D01*
X0072847Y0029214D01*
X0072792Y0029140D01*
X0072734Y0029069D01*
X0072672Y0028999D01*
X0072608Y0028933D01*
X0072541Y0028869D01*
X0072471Y0028809D01*
X0072398Y0028751D01*
X0072324Y0028696D01*
X0072247Y0028645D01*
X0072168Y0028597D01*
X0072086Y0028553D01*
X0072003Y0028511D01*
X0071919Y0028474D01*
X0071833Y0028440D01*
X0071745Y0028410D01*
X0071657Y0028384D01*
X0071567Y0028361D01*
X0071476Y0028343D01*
X0071385Y0028328D01*
X0071293Y0028317D01*
X0071201Y0028310D01*
X0071108Y0028307D01*
X0071016Y0028308D01*
X0070923Y0028313D01*
X0070831Y0028322D01*
X0070739Y0028335D01*
X0070648Y0028351D01*
X0070558Y0028372D01*
X0070469Y0028396D01*
X0070381Y0028425D01*
X0070294Y0028457D01*
X0070209Y0028492D01*
X0070125Y0028532D01*
X0070043Y0028574D01*
X0069963Y0028621D01*
X0069885Y0028670D01*
X0069809Y0028723D01*
X0069735Y0028779D01*
X0069664Y0028839D01*
X0069596Y0028901D01*
X0069530Y0028966D01*
X0069467Y0029034D01*
X0069407Y0029104D01*
X0069350Y0029177D01*
X0069296Y0029252D01*
X0069246Y0029330D01*
X0069199Y0029410D01*
X0069155Y0029491D01*
X0069115Y0029575D01*
X0069078Y0029660D01*
X0069045Y0029746D01*
X0069016Y0029834D01*
X0068991Y0029923D01*
X0068969Y0030013D01*
X0068952Y0030104D01*
X0068938Y0030195D01*
X0068928Y0030287D01*
X0068922Y0030379D01*
X0068920Y0030472D01*
X0068920Y0048189D02*
X0068922Y0048282D01*
X0068928Y0048374D01*
X0068938Y0048466D01*
X0068952Y0048557D01*
X0068969Y0048648D01*
X0068991Y0048738D01*
X0069016Y0048827D01*
X0069045Y0048915D01*
X0069078Y0049001D01*
X0069115Y0049086D01*
X0069155Y0049170D01*
X0069199Y0049251D01*
X0069246Y0049331D01*
X0069296Y0049409D01*
X0069350Y0049484D01*
X0069407Y0049557D01*
X0069467Y0049627D01*
X0069530Y0049695D01*
X0069596Y0049760D01*
X0069664Y0049822D01*
X0069735Y0049882D01*
X0069809Y0049938D01*
X0069885Y0049991D01*
X0069963Y0050040D01*
X0070043Y0050087D01*
X0070125Y0050129D01*
X0070209Y0050169D01*
X0070294Y0050204D01*
X0070381Y0050236D01*
X0070469Y0050265D01*
X0070558Y0050289D01*
X0070648Y0050310D01*
X0070739Y0050326D01*
X0070831Y0050339D01*
X0070923Y0050348D01*
X0071016Y0050353D01*
X0071108Y0050354D01*
X0071201Y0050351D01*
X0071293Y0050344D01*
X0071385Y0050333D01*
X0071476Y0050318D01*
X0071567Y0050300D01*
X0071657Y0050277D01*
X0071745Y0050251D01*
X0071833Y0050221D01*
X0071919Y0050187D01*
X0072003Y0050150D01*
X0072086Y0050108D01*
X0072167Y0050064D01*
X0072247Y0050016D01*
X0072324Y0049965D01*
X0072398Y0049910D01*
X0072471Y0049852D01*
X0072541Y0049792D01*
X0072608Y0049728D01*
X0072672Y0049662D01*
X0072734Y0049592D01*
X0072792Y0049521D01*
X0072847Y0049447D01*
X0072899Y0049370D01*
X0072948Y0049291D01*
X0072994Y0049211D01*
X0073036Y0049128D01*
X0073074Y0049044D01*
X0073109Y0048958D01*
X0073140Y0048871D01*
X0073167Y0048783D01*
X0073190Y0048693D01*
X0073210Y0048603D01*
X0073226Y0048512D01*
X0073238Y0048420D01*
X0073246Y0048328D01*
X0073250Y0048235D01*
X0073250Y0048143D01*
X0073246Y0048050D01*
X0073238Y0047958D01*
X0073226Y0047866D01*
X0073210Y0047775D01*
X0073190Y0047685D01*
X0073167Y0047595D01*
X0073140Y0047507D01*
X0073109Y0047420D01*
X0073074Y0047334D01*
X0073036Y0047250D01*
X0072994Y0047167D01*
X0072948Y0047087D01*
X0072899Y0047008D01*
X0072847Y0046931D01*
X0072792Y0046857D01*
X0072734Y0046786D01*
X0072672Y0046716D01*
X0072608Y0046650D01*
X0072541Y0046586D01*
X0072471Y0046526D01*
X0072398Y0046468D01*
X0072324Y0046413D01*
X0072247Y0046362D01*
X0072168Y0046314D01*
X0072086Y0046270D01*
X0072003Y0046228D01*
X0071919Y0046191D01*
X0071833Y0046157D01*
X0071745Y0046127D01*
X0071657Y0046101D01*
X0071567Y0046078D01*
X0071476Y0046060D01*
X0071385Y0046045D01*
X0071293Y0046034D01*
X0071201Y0046027D01*
X0071108Y0046024D01*
X0071016Y0046025D01*
X0070923Y0046030D01*
X0070831Y0046039D01*
X0070739Y0046052D01*
X0070648Y0046068D01*
X0070558Y0046089D01*
X0070469Y0046113D01*
X0070381Y0046142D01*
X0070294Y0046174D01*
X0070209Y0046209D01*
X0070125Y0046249D01*
X0070043Y0046291D01*
X0069963Y0046338D01*
X0069885Y0046387D01*
X0069809Y0046440D01*
X0069735Y0046496D01*
X0069664Y0046556D01*
X0069596Y0046618D01*
X0069530Y0046683D01*
X0069467Y0046751D01*
X0069407Y0046821D01*
X0069350Y0046894D01*
X0069296Y0046969D01*
X0069246Y0047047D01*
X0069199Y0047127D01*
X0069155Y0047208D01*
X0069115Y0047292D01*
X0069078Y0047377D01*
X0069045Y0047463D01*
X0069016Y0047551D01*
X0068991Y0047640D01*
X0068969Y0047730D01*
X0068952Y0047821D01*
X0068938Y0047912D01*
X0068928Y0048004D01*
X0068922Y0048096D01*
X0068920Y0048189D01*
X0088691Y0060650D02*
X0088693Y0060775D01*
X0088699Y0060900D01*
X0088709Y0061024D01*
X0088723Y0061148D01*
X0088740Y0061272D01*
X0088762Y0061395D01*
X0088788Y0061517D01*
X0088817Y0061639D01*
X0088850Y0061759D01*
X0088888Y0061878D01*
X0088928Y0061997D01*
X0088973Y0062113D01*
X0089021Y0062228D01*
X0089073Y0062342D01*
X0089129Y0062454D01*
X0089188Y0062564D01*
X0089250Y0062672D01*
X0089316Y0062779D01*
X0089385Y0062883D01*
X0089458Y0062984D01*
X0089533Y0063084D01*
X0089612Y0063181D01*
X0089694Y0063275D01*
X0089779Y0063367D01*
X0089866Y0063456D01*
X0089957Y0063542D01*
X0090050Y0063625D01*
X0090146Y0063706D01*
X0090244Y0063783D01*
X0090344Y0063857D01*
X0090447Y0063928D01*
X0090552Y0063995D01*
X0090660Y0064060D01*
X0090769Y0064120D01*
X0090880Y0064178D01*
X0090993Y0064231D01*
X0091107Y0064281D01*
X0091223Y0064328D01*
X0091340Y0064370D01*
X0091459Y0064409D01*
X0091579Y0064445D01*
X0091700Y0064476D01*
X0091822Y0064504D01*
X0091944Y0064527D01*
X0092068Y0064547D01*
X0092192Y0064563D01*
X0092316Y0064575D01*
X0092441Y0064583D01*
X0092566Y0064587D01*
X0092690Y0064587D01*
X0092815Y0064583D01*
X0092940Y0064575D01*
X0093064Y0064563D01*
X0093188Y0064547D01*
X0093312Y0064527D01*
X0093434Y0064504D01*
X0093556Y0064476D01*
X0093677Y0064445D01*
X0093797Y0064409D01*
X0093916Y0064370D01*
X0094033Y0064328D01*
X0094149Y0064281D01*
X0094263Y0064231D01*
X0094376Y0064178D01*
X0094487Y0064120D01*
X0094597Y0064060D01*
X0094704Y0063995D01*
X0094809Y0063928D01*
X0094912Y0063857D01*
X0095012Y0063783D01*
X0095110Y0063706D01*
X0095206Y0063625D01*
X0095299Y0063542D01*
X0095390Y0063456D01*
X0095477Y0063367D01*
X0095562Y0063275D01*
X0095644Y0063181D01*
X0095723Y0063084D01*
X0095798Y0062984D01*
X0095871Y0062883D01*
X0095940Y0062779D01*
X0096006Y0062672D01*
X0096068Y0062564D01*
X0096127Y0062454D01*
X0096183Y0062342D01*
X0096235Y0062228D01*
X0096283Y0062113D01*
X0096328Y0061997D01*
X0096368Y0061878D01*
X0096406Y0061759D01*
X0096439Y0061639D01*
X0096468Y0061517D01*
X0096494Y0061395D01*
X0096516Y0061272D01*
X0096533Y0061148D01*
X0096547Y0061024D01*
X0096557Y0060900D01*
X0096563Y0060775D01*
X0096565Y0060650D01*
X0096563Y0060525D01*
X0096557Y0060400D01*
X0096547Y0060276D01*
X0096533Y0060152D01*
X0096516Y0060028D01*
X0096494Y0059905D01*
X0096468Y0059783D01*
X0096439Y0059661D01*
X0096406Y0059541D01*
X0096368Y0059422D01*
X0096328Y0059303D01*
X0096283Y0059187D01*
X0096235Y0059072D01*
X0096183Y0058958D01*
X0096127Y0058846D01*
X0096068Y0058736D01*
X0096006Y0058628D01*
X0095940Y0058521D01*
X0095871Y0058417D01*
X0095798Y0058316D01*
X0095723Y0058216D01*
X0095644Y0058119D01*
X0095562Y0058025D01*
X0095477Y0057933D01*
X0095390Y0057844D01*
X0095299Y0057758D01*
X0095206Y0057675D01*
X0095110Y0057594D01*
X0095012Y0057517D01*
X0094912Y0057443D01*
X0094809Y0057372D01*
X0094704Y0057305D01*
X0094596Y0057240D01*
X0094487Y0057180D01*
X0094376Y0057122D01*
X0094263Y0057069D01*
X0094149Y0057019D01*
X0094033Y0056972D01*
X0093916Y0056930D01*
X0093797Y0056891D01*
X0093677Y0056855D01*
X0093556Y0056824D01*
X0093434Y0056796D01*
X0093312Y0056773D01*
X0093188Y0056753D01*
X0093064Y0056737D01*
X0092940Y0056725D01*
X0092815Y0056717D01*
X0092690Y0056713D01*
X0092566Y0056713D01*
X0092441Y0056717D01*
X0092316Y0056725D01*
X0092192Y0056737D01*
X0092068Y0056753D01*
X0091944Y0056773D01*
X0091822Y0056796D01*
X0091700Y0056824D01*
X0091579Y0056855D01*
X0091459Y0056891D01*
X0091340Y0056930D01*
X0091223Y0056972D01*
X0091107Y0057019D01*
X0090993Y0057069D01*
X0090880Y0057122D01*
X0090769Y0057180D01*
X0090659Y0057240D01*
X0090552Y0057305D01*
X0090447Y0057372D01*
X0090344Y0057443D01*
X0090244Y0057517D01*
X0090146Y0057594D01*
X0090050Y0057675D01*
X0089957Y0057758D01*
X0089866Y0057844D01*
X0089779Y0057933D01*
X0089694Y0058025D01*
X0089612Y0058119D01*
X0089533Y0058216D01*
X0089458Y0058316D01*
X0089385Y0058417D01*
X0089316Y0058521D01*
X0089250Y0058628D01*
X0089188Y0058736D01*
X0089129Y0058846D01*
X0089073Y0058958D01*
X0089021Y0059072D01*
X0088973Y0059187D01*
X0088928Y0059303D01*
X0088888Y0059422D01*
X0088850Y0059541D01*
X0088817Y0059661D01*
X0088788Y0059783D01*
X0088762Y0059905D01*
X0088740Y0060028D01*
X0088723Y0060152D01*
X0088709Y0060276D01*
X0088699Y0060400D01*
X0088693Y0060525D01*
X0088691Y0060650D01*
D11*
X0113357Y0057831D03*
X0120246Y0057831D03*
D12*
X0111802Y0049276D03*
X0111802Y0042386D03*
X0118302Y0035276D03*
X0118302Y0028386D03*
D13*
X0104302Y0042591D03*
X0096302Y0042591D03*
X0096302Y0050071D03*
X0104302Y0050071D03*
D14*
X0086030Y0044934D02*
X0086030Y0042570D01*
X0086030Y0044934D02*
X0089574Y0044934D01*
X0089574Y0042570D01*
X0086030Y0042570D01*
X0086030Y0043356D02*
X0089574Y0043356D01*
X0089574Y0044142D02*
X0086030Y0044142D01*
X0086030Y0044928D02*
X0089574Y0044928D01*
X0086030Y0035091D02*
X0086030Y0032727D01*
X0086030Y0035091D02*
X0089574Y0035091D01*
X0089574Y0032727D01*
X0086030Y0032727D01*
X0086030Y0033513D02*
X0089574Y0033513D01*
X0089574Y0034299D02*
X0086030Y0034299D01*
X0086030Y0035085D02*
X0089574Y0035085D01*
D15*
X0131191Y0035831D03*
X0131191Y0040831D03*
X0131191Y0045831D03*
X0131191Y0050831D03*
X0131191Y0055831D03*
X0152412Y0055831D03*
X0152412Y0050831D03*
X0152412Y0045831D03*
X0152412Y0040831D03*
X0152412Y0035831D03*
X0152412Y0030831D03*
X0152412Y0025831D03*
X0152412Y0020831D03*
X0131191Y0020831D03*
X0131191Y0025831D03*
X0131191Y0030831D03*
D16*
X0106302Y0056331D03*
X0106302Y0061331D03*
D17*
X0078802Y0036843D03*
X0078802Y0025819D03*
D18*
X0075302Y0016331D02*
X0066302Y0016331D01*
X0066302Y0062331D02*
X0075302Y0062331D01*
D19*
X0101955Y0029831D03*
X0108648Y0029831D03*
D20*
X0082802Y0060831D03*
D21*
X0165420Y0053425D03*
X0165420Y0047520D03*
X0165420Y0041614D03*
X0165420Y0035709D03*
X0165420Y0029803D03*
X0165420Y0023898D03*
D22*
X0124302Y0029831D03*
X0108102Y0036231D03*
X0100802Y0036231D03*
X0073202Y0022831D03*
D23*
X0076302Y0022831D01*
X0078802Y0025331D01*
X0078802Y0025819D01*
X0096302Y0037331D02*
X0097302Y0036331D01*
X0100702Y0036331D01*
X0100802Y0036231D01*
X0096302Y0037331D02*
X0096302Y0042591D01*
X0088963Y0042591D01*
X0087802Y0043752D01*
X0085711Y0043752D01*
X0078802Y0036843D01*
X0087802Y0043752D02*
X0082802Y0048752D01*
X0082802Y0060831D01*
X0104302Y0042591D02*
X0107802Y0042591D01*
X0108102Y0042291D01*
X0108102Y0036231D01*
X0108102Y0030377D01*
X0108648Y0029831D01*
X0118302Y0035276D02*
X0118302Y0038331D01*
X0114302Y0042331D01*
X0111857Y0042331D01*
X0111802Y0042386D01*
X0111097Y0042591D01*
X0107802Y0042591D01*
X0118302Y0035276D02*
X0118857Y0035831D01*
X0123802Y0035831D01*
X0124302Y0035331D01*
X0124302Y0029831D01*
X0123802Y0035831D02*
X0131191Y0035831D01*
X0126302Y0035831D01*
X0131191Y0035831D02*
X0142802Y0035831D01*
X0145802Y0032831D01*
X0145802Y0022831D01*
X0148102Y0021031D01*
X0150802Y0021031D01*
X0152412Y0020831D01*
X0152802Y0021031D01*
X0158002Y0021031D01*
X0159802Y0022831D01*
X0159802Y0026831D01*
X0162774Y0029803D01*
X0165420Y0029803D01*
D24*
X0169257Y0031819D02*
X0177599Y0031819D01*
X0177599Y0029320D02*
X0169737Y0029320D01*
X0169737Y0028944D02*
X0169737Y0030662D01*
X0169079Y0032248D01*
X0168572Y0032756D01*
X0169079Y0033263D01*
X0169737Y0034850D01*
X0169737Y0036567D01*
X0169079Y0038154D01*
X0168572Y0038661D01*
X0169079Y0039169D01*
X0169737Y0040755D01*
X0169737Y0042473D01*
X0169079Y0044060D01*
X0168572Y0044567D01*
X0169079Y0045074D01*
X0169737Y0046661D01*
X0169737Y0048378D01*
X0169079Y0049965D01*
X0168572Y0050472D01*
X0169079Y0050980D01*
X0169737Y0052566D01*
X0169737Y0054284D01*
X0169079Y0055871D01*
X0167865Y0057085D01*
X0166278Y0057742D01*
X0164561Y0057742D01*
X0163552Y0057324D01*
X0163552Y0059878D01*
X0163133Y0060888D01*
X0160323Y0063699D01*
X0177599Y0063699D01*
X0177599Y0015081D01*
X0120941Y0015081D01*
X0118935Y0015911D01*
X0116715Y0015911D01*
X0114710Y0015081D01*
X0099144Y0015081D01*
X0099815Y0016700D01*
X0099815Y0019559D01*
X0098721Y0022201D01*
X0096699Y0024223D01*
X0094058Y0025317D01*
X0091199Y0025317D01*
X0088557Y0024223D01*
X0086535Y0022201D01*
X0085441Y0019559D01*
X0085441Y0016700D01*
X0086112Y0015081D01*
X0079890Y0015081D01*
X0079935Y0015218D01*
X0080052Y0015957D01*
X0080052Y0016331D01*
X0080052Y0016705D01*
X0079935Y0017443D01*
X0079704Y0018154D01*
X0079364Y0018820D01*
X0078925Y0019425D01*
X0078633Y0019717D01*
X0079335Y0020419D01*
X0083277Y0020419D01*
X0084595Y0021737D01*
X0084595Y0029900D01*
X0083277Y0031218D01*
X0076500Y0031218D01*
X0076500Y0031443D01*
X0083277Y0031443D01*
X0083577Y0031743D01*
X0083687Y0031476D01*
X0083976Y0031043D01*
X0084345Y0030675D01*
X0084778Y0030386D01*
X0085259Y0030186D01*
X0085770Y0030085D01*
X0087802Y0030085D01*
X0089834Y0030085D01*
X0090344Y0030186D01*
X0090825Y0030386D01*
X0091258Y0030675D01*
X0091627Y0031043D01*
X0091916Y0031476D01*
X0092115Y0031957D01*
X0092217Y0032468D01*
X0092217Y0033909D01*
X0087802Y0033909D01*
X0087802Y0033909D01*
X0087802Y0030085D01*
X0087802Y0033909D01*
X0087802Y0033909D01*
X0092217Y0033909D01*
X0092217Y0035351D01*
X0092115Y0035862D01*
X0091916Y0036343D01*
X0091627Y0036776D01*
X0091258Y0037144D01*
X0090825Y0037433D01*
X0090344Y0037633D01*
X0089834Y0037734D01*
X0087802Y0037734D01*
X0087802Y0033910D01*
X0087802Y0033910D01*
X0087802Y0037734D01*
X0085770Y0037734D01*
X0085259Y0037633D01*
X0084879Y0037475D01*
X0086756Y0039353D01*
X0086782Y0039327D01*
X0088197Y0038741D01*
X0091458Y0038741D01*
X0092417Y0037781D01*
X0092452Y0037781D01*
X0092452Y0036565D01*
X0093038Y0035150D01*
X0094038Y0034150D01*
X0095021Y0033167D01*
X0094752Y0032517D01*
X0094752Y0031144D01*
X0095277Y0029876D01*
X0096247Y0028906D01*
X0097515Y0028381D01*
X0097737Y0028381D01*
X0097737Y0026733D01*
X0099055Y0025415D01*
X0104856Y0025415D01*
X0105302Y0025861D01*
X0105748Y0025415D01*
X0111549Y0025415D01*
X0112867Y0026733D01*
X0112867Y0032928D01*
X0112089Y0033706D01*
X0112752Y0035306D01*
X0112752Y0037156D01*
X0112373Y0038069D01*
X0113119Y0038069D01*
X0113926Y0037262D01*
X0113926Y0032277D01*
X0114373Y0031830D01*
X0114079Y0031321D01*
X0113926Y0030749D01*
X0113926Y0028386D01*
X0118301Y0028386D01*
X0118301Y0028386D01*
X0113926Y0028386D01*
X0113926Y0026023D01*
X0114079Y0025450D01*
X0114375Y0024937D01*
X0114794Y0024518D01*
X0115307Y0024222D01*
X0115879Y0024069D01*
X0118302Y0024069D01*
X0120724Y0024069D01*
X0121296Y0024222D01*
X0121809Y0024518D01*
X0122228Y0024937D01*
X0122524Y0025450D01*
X0122544Y0025525D01*
X0123377Y0025181D01*
X0125227Y0025181D01*
X0125941Y0025477D01*
X0125941Y0023649D01*
X0126295Y0023295D01*
X0126095Y0022949D01*
X0125941Y0022377D01*
X0125941Y0020831D01*
X0131191Y0020831D01*
X0131191Y0020831D01*
X0125941Y0020831D01*
X0125941Y0019284D01*
X0126095Y0018712D01*
X0126391Y0018199D01*
X0126810Y0017780D01*
X0127323Y0017484D01*
X0127895Y0017331D01*
X0131191Y0017331D01*
X0131191Y0020831D01*
X0125302Y0020831D01*
X0118302Y0027831D01*
X0118302Y0028386D01*
X0110246Y0020331D01*
X0101302Y0020331D01*
X0095802Y0025831D01*
X0088302Y0025831D01*
X0087802Y0025331D01*
X0087802Y0033909D01*
X0087802Y0034317D02*
X0087802Y0034317D01*
X0092217Y0034317D02*
X0093870Y0034317D01*
X0092452Y0036816D02*
X0091587Y0036816D01*
X0087802Y0036816D02*
X0087802Y0036816D01*
X0086812Y0039314D02*
X0086718Y0039314D01*
X0081312Y0044797D02*
X0078756Y0042242D01*
X0074326Y0042242D01*
X0073008Y0040924D01*
X0073008Y0035537D01*
X0072162Y0035888D01*
X0070008Y0035888D01*
X0068017Y0035063D01*
X0066494Y0033540D01*
X0065670Y0031550D01*
X0065670Y0029395D01*
X0066494Y0027405D01*
X0068017Y0025882D01*
X0069225Y0025381D01*
X0068552Y0023756D01*
X0068552Y0021906D01*
X0068893Y0021081D01*
X0065928Y0021081D01*
X0065189Y0020964D01*
X0064478Y0020733D01*
X0063812Y0020393D01*
X0063207Y0019954D01*
X0062678Y0019425D01*
X0062239Y0018820D01*
X0062052Y0018452D01*
X0062052Y0060209D01*
X0062239Y0059841D01*
X0062678Y0059236D01*
X0063207Y0058708D01*
X0063812Y0058268D01*
X0064478Y0057929D01*
X0065189Y0057698D01*
X0065928Y0057581D01*
X0070802Y0057581D01*
X0075675Y0057581D01*
X0076414Y0057698D01*
X0077125Y0057929D01*
X0077487Y0058113D01*
X0077757Y0057460D01*
X0078952Y0056266D01*
X0078952Y0047986D01*
X0079538Y0046571D01*
X0081312Y0044797D01*
X0080826Y0044311D02*
X0074866Y0044311D01*
X0074153Y0043598D02*
X0075676Y0045121D01*
X0076500Y0047112D01*
X0076500Y0049266D01*
X0075676Y0051257D01*
X0074153Y0052780D01*
X0072162Y0053604D01*
X0070008Y0053604D01*
X0068017Y0052780D01*
X0066494Y0051257D01*
X0065670Y0049266D01*
X0065670Y0047112D01*
X0066494Y0045121D01*
X0068017Y0043598D01*
X0070008Y0042774D01*
X0072162Y0042774D01*
X0074153Y0043598D01*
X0073897Y0041813D02*
X0062052Y0041813D01*
X0062052Y0039314D02*
X0073008Y0039314D01*
X0073008Y0036816D02*
X0062052Y0036816D01*
X0062052Y0034317D02*
X0067271Y0034317D01*
X0065781Y0031819D02*
X0062052Y0031819D01*
X0062052Y0029320D02*
X0065701Y0029320D01*
X0067077Y0026822D02*
X0062052Y0026822D01*
X0062052Y0024323D02*
X0068787Y0024323D01*
X0068585Y0021825D02*
X0062052Y0021825D01*
X0065302Y0021831D02*
X0065302Y0039031D01*
X0065302Y0056831D01*
X0070802Y0062331D01*
X0070802Y0057581D01*
X0070802Y0062331D01*
X0070802Y0062331D01*
X0070802Y0061801D02*
X0070802Y0061801D01*
X0070802Y0059302D02*
X0070802Y0059302D01*
X0078414Y0056804D02*
X0062052Y0056804D01*
X0062052Y0059302D02*
X0062630Y0059302D01*
X0062052Y0054305D02*
X0078952Y0054305D01*
X0078952Y0051807D02*
X0075126Y0051807D01*
X0076483Y0049308D02*
X0078952Y0049308D01*
X0079439Y0046810D02*
X0076375Y0046810D01*
X0067304Y0044311D02*
X0062052Y0044311D01*
X0062052Y0046810D02*
X0065795Y0046810D01*
X0065687Y0049308D02*
X0062052Y0049308D01*
X0062052Y0051807D02*
X0067044Y0051807D01*
X0086652Y0051807D02*
X0091099Y0051807D01*
X0091099Y0052926D02*
X0091099Y0050100D01*
X0096272Y0050100D01*
X0096272Y0050041D01*
X0091099Y0050041D01*
X0091099Y0047216D01*
X0091124Y0047121D01*
X0091071Y0047174D01*
X0090099Y0047577D01*
X0089421Y0047577D01*
X0086652Y0050347D01*
X0086652Y0056266D01*
X0086750Y0056364D01*
X0088557Y0054557D01*
X0091199Y0053463D01*
X0091243Y0053463D01*
X0091099Y0052926D01*
X0089802Y0053331D02*
X0093061Y0050071D01*
X0096302Y0050071D01*
X0104302Y0050071D01*
X0111006Y0050071D01*
X0111802Y0049276D01*
X0116178Y0049276D01*
X0116178Y0050576D01*
X0116847Y0049906D01*
X0118115Y0049381D01*
X0119488Y0049381D01*
X0120756Y0049906D01*
X0121726Y0050876D01*
X0122191Y0051997D01*
X0125489Y0048699D01*
X0126175Y0048415D01*
X0126259Y0048331D01*
X0125941Y0048013D01*
X0125941Y0046881D01*
X0125715Y0046881D01*
X0124447Y0046355D01*
X0123477Y0045385D01*
X0122952Y0044117D01*
X0122952Y0043181D01*
X0122715Y0043181D01*
X0121447Y0042655D01*
X0120477Y0041685D01*
X0120452Y0041625D01*
X0117565Y0044512D01*
X0116482Y0045595D01*
X0115765Y0045892D01*
X0116024Y0046340D01*
X0116178Y0046912D01*
X0116178Y0049276D01*
X0111802Y0049276D01*
X0111802Y0049276D01*
X0113202Y0050176D01*
X0113202Y0057676D01*
X0113357Y0057831D01*
X0122112Y0051807D02*
X0122381Y0051807D01*
X0124880Y0049308D02*
X0116178Y0049308D01*
X0116150Y0046810D02*
X0125544Y0046810D01*
X0123032Y0044311D02*
X0117766Y0044311D01*
X0117565Y0044512D02*
X0117565Y0044512D01*
X0120264Y0041813D02*
X0120605Y0041813D01*
X0113926Y0036816D02*
X0112752Y0036816D01*
X0112342Y0034317D02*
X0113926Y0034317D01*
X0113102Y0033631D02*
X0113102Y0028831D01*
X0113546Y0028386D01*
X0118302Y0028386D01*
X0118302Y0024069D01*
X0118302Y0028386D01*
X0118302Y0028386D01*
X0118302Y0026822D02*
X0118302Y0026822D01*
X0113926Y0026822D02*
X0112867Y0026822D01*
X0112867Y0029320D02*
X0113926Y0029320D01*
X0114366Y0031819D02*
X0112867Y0031819D01*
X0097737Y0026822D02*
X0084595Y0026822D01*
X0087802Y0025331D02*
X0085302Y0022831D01*
X0085302Y0017331D01*
X0084302Y0016331D01*
X0070802Y0016331D01*
X0080052Y0016331D01*
X0070802Y0016331D01*
X0070802Y0016331D01*
X0065302Y0021831D01*
X0062607Y0019326D02*
X0062052Y0019326D01*
X0078997Y0019326D02*
X0085441Y0019326D01*
X0085441Y0016828D02*
X0080032Y0016828D01*
X0084595Y0021825D02*
X0086380Y0021825D01*
X0084595Y0024323D02*
X0088800Y0024323D01*
X0096457Y0024323D02*
X0115132Y0024323D01*
X0118302Y0024323D02*
X0118302Y0024323D01*
X0121471Y0024323D02*
X0125941Y0024323D01*
X0125941Y0021825D02*
X0098877Y0021825D01*
X0099815Y0019326D02*
X0125941Y0019326D01*
X0130802Y0020631D02*
X0131191Y0020831D01*
X0132402Y0020631D01*
X0136402Y0016631D01*
X0164102Y0016631D01*
X0165420Y0017949D01*
X0165420Y0023898D01*
X0169737Y0023898D01*
X0169737Y0024237D01*
X0169630Y0024909D01*
X0169420Y0025555D01*
X0169112Y0026160D01*
X0168712Y0026710D01*
X0168572Y0026850D01*
X0169079Y0027358D01*
X0169737Y0028944D01*
X0168601Y0026822D02*
X0177599Y0026822D01*
X0177599Y0024323D02*
X0169723Y0024323D01*
X0169737Y0023898D02*
X0165420Y0023898D01*
X0165420Y0023898D01*
X0165420Y0019581D01*
X0165759Y0019581D01*
X0166431Y0019687D01*
X0167077Y0019897D01*
X0167682Y0020205D01*
X0168232Y0020605D01*
X0168712Y0021085D01*
X0169112Y0021635D01*
X0169420Y0022241D01*
X0169630Y0022887D01*
X0169737Y0023558D01*
X0169737Y0023898D01*
X0169208Y0021825D02*
X0177599Y0021825D01*
X0177599Y0019326D02*
X0161742Y0019326D01*
X0163157Y0020205D02*
X0163763Y0019897D01*
X0164409Y0019687D01*
X0165080Y0019581D01*
X0165420Y0019581D01*
X0165420Y0023898D01*
X0165420Y0023898D01*
X0165420Y0021825D02*
X0165420Y0021825D01*
X0163157Y0020205D02*
X0162847Y0020431D01*
X0160182Y0017767D01*
X0158767Y0017181D01*
X0153732Y0017181D01*
X0153488Y0017056D01*
X0153086Y0017023D01*
X0152697Y0016916D01*
X0152330Y0016961D01*
X0151962Y0016931D01*
X0151578Y0017055D01*
X0150563Y0017181D01*
X0148335Y0017181D01*
X0147807Y0017116D01*
X0147576Y0017181D01*
X0147336Y0017181D01*
X0146844Y0017384D01*
X0146332Y0017527D01*
X0146143Y0017675D01*
X0145921Y0017767D01*
X0145545Y0018143D01*
X0144338Y0019088D01*
X0143556Y0018306D01*
X0142288Y0017781D01*
X0140915Y0017781D01*
X0139647Y0018306D01*
X0138677Y0019276D01*
X0138152Y0020544D01*
X0138152Y0020792D01*
X0136396Y0022548D01*
X0136441Y0022377D01*
X0136441Y0020831D01*
X0131191Y0020831D01*
X0131191Y0020831D01*
X0131191Y0020831D01*
X0131191Y0017331D01*
X0134488Y0017331D01*
X0135060Y0017484D01*
X0135573Y0017780D01*
X0135992Y0018199D01*
X0136288Y0018712D01*
X0136441Y0019284D01*
X0136441Y0020831D01*
X0131191Y0020831D01*
X0131191Y0019326D02*
X0131191Y0019326D01*
X0136441Y0019326D02*
X0138656Y0019326D01*
X0137118Y0021825D02*
X0136441Y0021825D01*
X0169516Y0034317D02*
X0177599Y0034317D01*
X0177599Y0036816D02*
X0169634Y0036816D01*
X0169140Y0039314D02*
X0177599Y0039314D01*
X0177599Y0041813D02*
X0169737Y0041813D01*
X0168828Y0044311D02*
X0177599Y0044311D01*
X0177599Y0046810D02*
X0169737Y0046810D01*
X0169351Y0049308D02*
X0177599Y0049308D01*
X0177599Y0051807D02*
X0169422Y0051807D01*
X0169728Y0054305D02*
X0177599Y0054305D01*
X0177599Y0056804D02*
X0168146Y0056804D01*
X0163552Y0059302D02*
X0177599Y0059302D01*
X0177599Y0061801D02*
X0162220Y0061801D01*
X0106097Y0048776D02*
X0104302Y0050071D01*
X0105097Y0049276D01*
X0104272Y0050041D02*
X0099099Y0050041D01*
X0096331Y0050041D01*
X0096331Y0050100D01*
X0104272Y0050100D01*
X0104272Y0050041D01*
X0091099Y0049308D02*
X0087690Y0049308D01*
X0086652Y0054305D02*
X0089164Y0054305D01*
X0087802Y0031819D02*
X0087802Y0031819D01*
X0092058Y0031819D02*
X0094752Y0031819D01*
X0095833Y0029320D02*
X0084595Y0029320D01*
X0099815Y0016828D02*
X0177599Y0016828D01*
D25*
X0113102Y0033631D03*
X0089802Y0053331D03*
X0065302Y0039031D03*
D26*
X0098202Y0031831D02*
X0100202Y0029831D01*
X0101955Y0029831D01*
X0123402Y0039731D02*
X0124502Y0040831D01*
X0131191Y0040831D01*
X0126402Y0043431D02*
X0128802Y0045831D01*
X0131191Y0045831D01*
X0131191Y0050831D02*
X0130802Y0051031D01*
X0127046Y0051031D01*
X0120246Y0057831D01*
X0120246Y0054276D01*
X0118802Y0052831D01*
X0131191Y0055831D02*
X0131302Y0055941D01*
X0131302Y0058831D01*
X0127902Y0062231D01*
X0107802Y0062231D01*
X0106902Y0061331D01*
X0106302Y0061331D01*
X0107602Y0062231D02*
X0107802Y0062231D01*
X0141302Y0063331D02*
X0156802Y0063331D01*
X0160802Y0059331D01*
X0160802Y0045331D01*
X0164518Y0041614D01*
X0165420Y0041614D01*
X0157602Y0045231D02*
X0157602Y0032631D01*
X0155802Y0030831D01*
X0152412Y0030831D01*
X0142002Y0030331D02*
X0141302Y0031031D01*
X0131202Y0031031D01*
X0131191Y0030831D01*
X0131191Y0025831D02*
X0137002Y0025831D01*
X0141602Y0021231D01*
X0149302Y0035831D02*
X0144402Y0040731D01*
X0144402Y0054731D01*
X0149302Y0035831D02*
X0152412Y0035831D01*
D27*
X0142002Y0030331D03*
X0141602Y0021231D03*
X0123402Y0039731D03*
X0126402Y0043431D03*
X0118802Y0052831D03*
X0141302Y0063331D03*
X0144402Y0054731D03*
X0157602Y0045231D03*
X0098202Y0031831D03*
M02*
