%
M48
M72
T01C0.0120
T02C0.0236
T03C0.0250
T04C0.0276
T05C0.0320
T06C0.0400
T07C0.0433
T08C0.0787
%
T01
X9570Y3283
X12640Y4343
X12290Y5023
X14080Y5433
X14440Y4573
X15760Y4523
X13800Y3333
X14160Y2023
T02
X10730Y5533
X10730Y6233
T03
X8780Y4933
X6680Y4303
X9560Y2583
X11760Y3663
X12440Y2983
X12720Y1663
T04
X16542Y2390
X16542Y2980
X16542Y3571
X16542Y4161
X16542Y4752
X16542Y5343
T05
X13810Y3913
X10960Y3623
X10080Y3623
X7320Y2283
T06
X8280Y6083
T07
X7109Y3047
X7109Y4819
T08
X9263Y6065
X9263Y1813
M30
