G75*
%MOIN*%
%OFA0B0*%
%FSLAX25Y25*%
%IPPOS*%
%LPD*%
%AMOC8*
5,1,8,0,0,1.08239X$1,22.5*
%
%ADD10C,0.00000*%
%ADD11C,0.00600*%
%ADD12C,0.00500*%
%ADD13C,0.00800*%
D10*
X0058802Y0013831D02*
X0061802Y0010831D01*
X0180849Y0010831D01*
X0180849Y0065949D01*
X0061802Y0065949D01*
X0058802Y0062949D01*
X0058802Y0013831D01*
X0090691Y0017130D02*
X0090693Y0017255D01*
X0090699Y0017380D01*
X0090709Y0017504D01*
X0090723Y0017628D01*
X0090740Y0017752D01*
X0090762Y0017875D01*
X0090788Y0017997D01*
X0090817Y0018119D01*
X0090850Y0018239D01*
X0090888Y0018358D01*
X0090928Y0018477D01*
X0090973Y0018593D01*
X0091021Y0018708D01*
X0091073Y0018822D01*
X0091129Y0018934D01*
X0091188Y0019044D01*
X0091250Y0019152D01*
X0091316Y0019259D01*
X0091385Y0019363D01*
X0091458Y0019464D01*
X0091533Y0019564D01*
X0091612Y0019661D01*
X0091694Y0019755D01*
X0091779Y0019847D01*
X0091866Y0019936D01*
X0091957Y0020022D01*
X0092050Y0020105D01*
X0092146Y0020186D01*
X0092244Y0020263D01*
X0092344Y0020337D01*
X0092447Y0020408D01*
X0092552Y0020475D01*
X0092660Y0020540D01*
X0092769Y0020600D01*
X0092880Y0020658D01*
X0092993Y0020711D01*
X0093107Y0020761D01*
X0093223Y0020808D01*
X0093340Y0020850D01*
X0093459Y0020889D01*
X0093579Y0020925D01*
X0093700Y0020956D01*
X0093822Y0020984D01*
X0093944Y0021007D01*
X0094068Y0021027D01*
X0094192Y0021043D01*
X0094316Y0021055D01*
X0094441Y0021063D01*
X0094566Y0021067D01*
X0094690Y0021067D01*
X0094815Y0021063D01*
X0094940Y0021055D01*
X0095064Y0021043D01*
X0095188Y0021027D01*
X0095312Y0021007D01*
X0095434Y0020984D01*
X0095556Y0020956D01*
X0095677Y0020925D01*
X0095797Y0020889D01*
X0095916Y0020850D01*
X0096033Y0020808D01*
X0096149Y0020761D01*
X0096263Y0020711D01*
X0096376Y0020658D01*
X0096487Y0020600D01*
X0096597Y0020540D01*
X0096704Y0020475D01*
X0096809Y0020408D01*
X0096912Y0020337D01*
X0097012Y0020263D01*
X0097110Y0020186D01*
X0097206Y0020105D01*
X0097299Y0020022D01*
X0097390Y0019936D01*
X0097477Y0019847D01*
X0097562Y0019755D01*
X0097644Y0019661D01*
X0097723Y0019564D01*
X0097798Y0019464D01*
X0097871Y0019363D01*
X0097940Y0019259D01*
X0098006Y0019152D01*
X0098068Y0019044D01*
X0098127Y0018934D01*
X0098183Y0018822D01*
X0098235Y0018708D01*
X0098283Y0018593D01*
X0098328Y0018477D01*
X0098368Y0018358D01*
X0098406Y0018239D01*
X0098439Y0018119D01*
X0098468Y0017997D01*
X0098494Y0017875D01*
X0098516Y0017752D01*
X0098533Y0017628D01*
X0098547Y0017504D01*
X0098557Y0017380D01*
X0098563Y0017255D01*
X0098565Y0017130D01*
X0098563Y0017005D01*
X0098557Y0016880D01*
X0098547Y0016756D01*
X0098533Y0016632D01*
X0098516Y0016508D01*
X0098494Y0016385D01*
X0098468Y0016263D01*
X0098439Y0016141D01*
X0098406Y0016021D01*
X0098368Y0015902D01*
X0098328Y0015783D01*
X0098283Y0015667D01*
X0098235Y0015552D01*
X0098183Y0015438D01*
X0098127Y0015326D01*
X0098068Y0015216D01*
X0098006Y0015108D01*
X0097940Y0015001D01*
X0097871Y0014897D01*
X0097798Y0014796D01*
X0097723Y0014696D01*
X0097644Y0014599D01*
X0097562Y0014505D01*
X0097477Y0014413D01*
X0097390Y0014324D01*
X0097299Y0014238D01*
X0097206Y0014155D01*
X0097110Y0014074D01*
X0097012Y0013997D01*
X0096912Y0013923D01*
X0096809Y0013852D01*
X0096704Y0013785D01*
X0096596Y0013720D01*
X0096487Y0013660D01*
X0096376Y0013602D01*
X0096263Y0013549D01*
X0096149Y0013499D01*
X0096033Y0013452D01*
X0095916Y0013410D01*
X0095797Y0013371D01*
X0095677Y0013335D01*
X0095556Y0013304D01*
X0095434Y0013276D01*
X0095312Y0013253D01*
X0095188Y0013233D01*
X0095064Y0013217D01*
X0094940Y0013205D01*
X0094815Y0013197D01*
X0094690Y0013193D01*
X0094566Y0013193D01*
X0094441Y0013197D01*
X0094316Y0013205D01*
X0094192Y0013217D01*
X0094068Y0013233D01*
X0093944Y0013253D01*
X0093822Y0013276D01*
X0093700Y0013304D01*
X0093579Y0013335D01*
X0093459Y0013371D01*
X0093340Y0013410D01*
X0093223Y0013452D01*
X0093107Y0013499D01*
X0092993Y0013549D01*
X0092880Y0013602D01*
X0092769Y0013660D01*
X0092659Y0013720D01*
X0092552Y0013785D01*
X0092447Y0013852D01*
X0092344Y0013923D01*
X0092244Y0013997D01*
X0092146Y0014074D01*
X0092050Y0014155D01*
X0091957Y0014238D01*
X0091866Y0014324D01*
X0091779Y0014413D01*
X0091694Y0014505D01*
X0091612Y0014599D01*
X0091533Y0014696D01*
X0091458Y0014796D01*
X0091385Y0014897D01*
X0091316Y0015001D01*
X0091250Y0015108D01*
X0091188Y0015216D01*
X0091129Y0015326D01*
X0091073Y0015438D01*
X0091021Y0015552D01*
X0090973Y0015667D01*
X0090928Y0015783D01*
X0090888Y0015902D01*
X0090850Y0016021D01*
X0090817Y0016141D01*
X0090788Y0016263D01*
X0090762Y0016385D01*
X0090740Y0016508D01*
X0090723Y0016632D01*
X0090709Y0016756D01*
X0090699Y0016880D01*
X0090693Y0017005D01*
X0090691Y0017130D01*
X0068920Y0029472D02*
X0068922Y0029565D01*
X0068928Y0029657D01*
X0068938Y0029749D01*
X0068952Y0029840D01*
X0068969Y0029931D01*
X0068991Y0030021D01*
X0069016Y0030110D01*
X0069045Y0030198D01*
X0069078Y0030284D01*
X0069115Y0030369D01*
X0069155Y0030453D01*
X0069199Y0030534D01*
X0069246Y0030614D01*
X0069296Y0030692D01*
X0069350Y0030767D01*
X0069407Y0030840D01*
X0069467Y0030910D01*
X0069530Y0030978D01*
X0069596Y0031043D01*
X0069664Y0031105D01*
X0069735Y0031165D01*
X0069809Y0031221D01*
X0069885Y0031274D01*
X0069963Y0031323D01*
X0070043Y0031370D01*
X0070125Y0031412D01*
X0070209Y0031452D01*
X0070294Y0031487D01*
X0070381Y0031519D01*
X0070469Y0031548D01*
X0070558Y0031572D01*
X0070648Y0031593D01*
X0070739Y0031609D01*
X0070831Y0031622D01*
X0070923Y0031631D01*
X0071016Y0031636D01*
X0071108Y0031637D01*
X0071201Y0031634D01*
X0071293Y0031627D01*
X0071385Y0031616D01*
X0071476Y0031601D01*
X0071567Y0031583D01*
X0071657Y0031560D01*
X0071745Y0031534D01*
X0071833Y0031504D01*
X0071919Y0031470D01*
X0072003Y0031433D01*
X0072086Y0031391D01*
X0072167Y0031347D01*
X0072247Y0031299D01*
X0072324Y0031248D01*
X0072398Y0031193D01*
X0072471Y0031135D01*
X0072541Y0031075D01*
X0072608Y0031011D01*
X0072672Y0030945D01*
X0072734Y0030875D01*
X0072792Y0030804D01*
X0072847Y0030730D01*
X0072899Y0030653D01*
X0072948Y0030574D01*
X0072994Y0030494D01*
X0073036Y0030411D01*
X0073074Y0030327D01*
X0073109Y0030241D01*
X0073140Y0030154D01*
X0073167Y0030066D01*
X0073190Y0029976D01*
X0073210Y0029886D01*
X0073226Y0029795D01*
X0073238Y0029703D01*
X0073246Y0029611D01*
X0073250Y0029518D01*
X0073250Y0029426D01*
X0073246Y0029333D01*
X0073238Y0029241D01*
X0073226Y0029149D01*
X0073210Y0029058D01*
X0073190Y0028968D01*
X0073167Y0028878D01*
X0073140Y0028790D01*
X0073109Y0028703D01*
X0073074Y0028617D01*
X0073036Y0028533D01*
X0072994Y0028450D01*
X0072948Y0028370D01*
X0072899Y0028291D01*
X0072847Y0028214D01*
X0072792Y0028140D01*
X0072734Y0028069D01*
X0072672Y0027999D01*
X0072608Y0027933D01*
X0072541Y0027869D01*
X0072471Y0027809D01*
X0072398Y0027751D01*
X0072324Y0027696D01*
X0072247Y0027645D01*
X0072168Y0027597D01*
X0072086Y0027553D01*
X0072003Y0027511D01*
X0071919Y0027474D01*
X0071833Y0027440D01*
X0071745Y0027410D01*
X0071657Y0027384D01*
X0071567Y0027361D01*
X0071476Y0027343D01*
X0071385Y0027328D01*
X0071293Y0027317D01*
X0071201Y0027310D01*
X0071108Y0027307D01*
X0071016Y0027308D01*
X0070923Y0027313D01*
X0070831Y0027322D01*
X0070739Y0027335D01*
X0070648Y0027351D01*
X0070558Y0027372D01*
X0070469Y0027396D01*
X0070381Y0027425D01*
X0070294Y0027457D01*
X0070209Y0027492D01*
X0070125Y0027532D01*
X0070043Y0027574D01*
X0069963Y0027621D01*
X0069885Y0027670D01*
X0069809Y0027723D01*
X0069735Y0027779D01*
X0069664Y0027839D01*
X0069596Y0027901D01*
X0069530Y0027966D01*
X0069467Y0028034D01*
X0069407Y0028104D01*
X0069350Y0028177D01*
X0069296Y0028252D01*
X0069246Y0028330D01*
X0069199Y0028410D01*
X0069155Y0028491D01*
X0069115Y0028575D01*
X0069078Y0028660D01*
X0069045Y0028746D01*
X0069016Y0028834D01*
X0068991Y0028923D01*
X0068969Y0029013D01*
X0068952Y0029104D01*
X0068938Y0029195D01*
X0068928Y0029287D01*
X0068922Y0029379D01*
X0068920Y0029472D01*
X0068920Y0047189D02*
X0068922Y0047282D01*
X0068928Y0047374D01*
X0068938Y0047466D01*
X0068952Y0047557D01*
X0068969Y0047648D01*
X0068991Y0047738D01*
X0069016Y0047827D01*
X0069045Y0047915D01*
X0069078Y0048001D01*
X0069115Y0048086D01*
X0069155Y0048170D01*
X0069199Y0048251D01*
X0069246Y0048331D01*
X0069296Y0048409D01*
X0069350Y0048484D01*
X0069407Y0048557D01*
X0069467Y0048627D01*
X0069530Y0048695D01*
X0069596Y0048760D01*
X0069664Y0048822D01*
X0069735Y0048882D01*
X0069809Y0048938D01*
X0069885Y0048991D01*
X0069963Y0049040D01*
X0070043Y0049087D01*
X0070125Y0049129D01*
X0070209Y0049169D01*
X0070294Y0049204D01*
X0070381Y0049236D01*
X0070469Y0049265D01*
X0070558Y0049289D01*
X0070648Y0049310D01*
X0070739Y0049326D01*
X0070831Y0049339D01*
X0070923Y0049348D01*
X0071016Y0049353D01*
X0071108Y0049354D01*
X0071201Y0049351D01*
X0071293Y0049344D01*
X0071385Y0049333D01*
X0071476Y0049318D01*
X0071567Y0049300D01*
X0071657Y0049277D01*
X0071745Y0049251D01*
X0071833Y0049221D01*
X0071919Y0049187D01*
X0072003Y0049150D01*
X0072086Y0049108D01*
X0072167Y0049064D01*
X0072247Y0049016D01*
X0072324Y0048965D01*
X0072398Y0048910D01*
X0072471Y0048852D01*
X0072541Y0048792D01*
X0072608Y0048728D01*
X0072672Y0048662D01*
X0072734Y0048592D01*
X0072792Y0048521D01*
X0072847Y0048447D01*
X0072899Y0048370D01*
X0072948Y0048291D01*
X0072994Y0048211D01*
X0073036Y0048128D01*
X0073074Y0048044D01*
X0073109Y0047958D01*
X0073140Y0047871D01*
X0073167Y0047783D01*
X0073190Y0047693D01*
X0073210Y0047603D01*
X0073226Y0047512D01*
X0073238Y0047420D01*
X0073246Y0047328D01*
X0073250Y0047235D01*
X0073250Y0047143D01*
X0073246Y0047050D01*
X0073238Y0046958D01*
X0073226Y0046866D01*
X0073210Y0046775D01*
X0073190Y0046685D01*
X0073167Y0046595D01*
X0073140Y0046507D01*
X0073109Y0046420D01*
X0073074Y0046334D01*
X0073036Y0046250D01*
X0072994Y0046167D01*
X0072948Y0046087D01*
X0072899Y0046008D01*
X0072847Y0045931D01*
X0072792Y0045857D01*
X0072734Y0045786D01*
X0072672Y0045716D01*
X0072608Y0045650D01*
X0072541Y0045586D01*
X0072471Y0045526D01*
X0072398Y0045468D01*
X0072324Y0045413D01*
X0072247Y0045362D01*
X0072168Y0045314D01*
X0072086Y0045270D01*
X0072003Y0045228D01*
X0071919Y0045191D01*
X0071833Y0045157D01*
X0071745Y0045127D01*
X0071657Y0045101D01*
X0071567Y0045078D01*
X0071476Y0045060D01*
X0071385Y0045045D01*
X0071293Y0045034D01*
X0071201Y0045027D01*
X0071108Y0045024D01*
X0071016Y0045025D01*
X0070923Y0045030D01*
X0070831Y0045039D01*
X0070739Y0045052D01*
X0070648Y0045068D01*
X0070558Y0045089D01*
X0070469Y0045113D01*
X0070381Y0045142D01*
X0070294Y0045174D01*
X0070209Y0045209D01*
X0070125Y0045249D01*
X0070043Y0045291D01*
X0069963Y0045338D01*
X0069885Y0045387D01*
X0069809Y0045440D01*
X0069735Y0045496D01*
X0069664Y0045556D01*
X0069596Y0045618D01*
X0069530Y0045683D01*
X0069467Y0045751D01*
X0069407Y0045821D01*
X0069350Y0045894D01*
X0069296Y0045969D01*
X0069246Y0046047D01*
X0069199Y0046127D01*
X0069155Y0046208D01*
X0069115Y0046292D01*
X0069078Y0046377D01*
X0069045Y0046463D01*
X0069016Y0046551D01*
X0068991Y0046640D01*
X0068969Y0046730D01*
X0068952Y0046821D01*
X0068938Y0046912D01*
X0068928Y0047004D01*
X0068922Y0047096D01*
X0068920Y0047189D01*
X0090691Y0059650D02*
X0090693Y0059775D01*
X0090699Y0059900D01*
X0090709Y0060024D01*
X0090723Y0060148D01*
X0090740Y0060272D01*
X0090762Y0060395D01*
X0090788Y0060517D01*
X0090817Y0060639D01*
X0090850Y0060759D01*
X0090888Y0060878D01*
X0090928Y0060997D01*
X0090973Y0061113D01*
X0091021Y0061228D01*
X0091073Y0061342D01*
X0091129Y0061454D01*
X0091188Y0061564D01*
X0091250Y0061672D01*
X0091316Y0061779D01*
X0091385Y0061883D01*
X0091458Y0061984D01*
X0091533Y0062084D01*
X0091612Y0062181D01*
X0091694Y0062275D01*
X0091779Y0062367D01*
X0091866Y0062456D01*
X0091957Y0062542D01*
X0092050Y0062625D01*
X0092146Y0062706D01*
X0092244Y0062783D01*
X0092344Y0062857D01*
X0092447Y0062928D01*
X0092552Y0062995D01*
X0092660Y0063060D01*
X0092769Y0063120D01*
X0092880Y0063178D01*
X0092993Y0063231D01*
X0093107Y0063281D01*
X0093223Y0063328D01*
X0093340Y0063370D01*
X0093459Y0063409D01*
X0093579Y0063445D01*
X0093700Y0063476D01*
X0093822Y0063504D01*
X0093944Y0063527D01*
X0094068Y0063547D01*
X0094192Y0063563D01*
X0094316Y0063575D01*
X0094441Y0063583D01*
X0094566Y0063587D01*
X0094690Y0063587D01*
X0094815Y0063583D01*
X0094940Y0063575D01*
X0095064Y0063563D01*
X0095188Y0063547D01*
X0095312Y0063527D01*
X0095434Y0063504D01*
X0095556Y0063476D01*
X0095677Y0063445D01*
X0095797Y0063409D01*
X0095916Y0063370D01*
X0096033Y0063328D01*
X0096149Y0063281D01*
X0096263Y0063231D01*
X0096376Y0063178D01*
X0096487Y0063120D01*
X0096597Y0063060D01*
X0096704Y0062995D01*
X0096809Y0062928D01*
X0096912Y0062857D01*
X0097012Y0062783D01*
X0097110Y0062706D01*
X0097206Y0062625D01*
X0097299Y0062542D01*
X0097390Y0062456D01*
X0097477Y0062367D01*
X0097562Y0062275D01*
X0097644Y0062181D01*
X0097723Y0062084D01*
X0097798Y0061984D01*
X0097871Y0061883D01*
X0097940Y0061779D01*
X0098006Y0061672D01*
X0098068Y0061564D01*
X0098127Y0061454D01*
X0098183Y0061342D01*
X0098235Y0061228D01*
X0098283Y0061113D01*
X0098328Y0060997D01*
X0098368Y0060878D01*
X0098406Y0060759D01*
X0098439Y0060639D01*
X0098468Y0060517D01*
X0098494Y0060395D01*
X0098516Y0060272D01*
X0098533Y0060148D01*
X0098547Y0060024D01*
X0098557Y0059900D01*
X0098563Y0059775D01*
X0098565Y0059650D01*
X0098563Y0059525D01*
X0098557Y0059400D01*
X0098547Y0059276D01*
X0098533Y0059152D01*
X0098516Y0059028D01*
X0098494Y0058905D01*
X0098468Y0058783D01*
X0098439Y0058661D01*
X0098406Y0058541D01*
X0098368Y0058422D01*
X0098328Y0058303D01*
X0098283Y0058187D01*
X0098235Y0058072D01*
X0098183Y0057958D01*
X0098127Y0057846D01*
X0098068Y0057736D01*
X0098006Y0057628D01*
X0097940Y0057521D01*
X0097871Y0057417D01*
X0097798Y0057316D01*
X0097723Y0057216D01*
X0097644Y0057119D01*
X0097562Y0057025D01*
X0097477Y0056933D01*
X0097390Y0056844D01*
X0097299Y0056758D01*
X0097206Y0056675D01*
X0097110Y0056594D01*
X0097012Y0056517D01*
X0096912Y0056443D01*
X0096809Y0056372D01*
X0096704Y0056305D01*
X0096596Y0056240D01*
X0096487Y0056180D01*
X0096376Y0056122D01*
X0096263Y0056069D01*
X0096149Y0056019D01*
X0096033Y0055972D01*
X0095916Y0055930D01*
X0095797Y0055891D01*
X0095677Y0055855D01*
X0095556Y0055824D01*
X0095434Y0055796D01*
X0095312Y0055773D01*
X0095188Y0055753D01*
X0095064Y0055737D01*
X0094940Y0055725D01*
X0094815Y0055717D01*
X0094690Y0055713D01*
X0094566Y0055713D01*
X0094441Y0055717D01*
X0094316Y0055725D01*
X0094192Y0055737D01*
X0094068Y0055753D01*
X0093944Y0055773D01*
X0093822Y0055796D01*
X0093700Y0055824D01*
X0093579Y0055855D01*
X0093459Y0055891D01*
X0093340Y0055930D01*
X0093223Y0055972D01*
X0093107Y0056019D01*
X0092993Y0056069D01*
X0092880Y0056122D01*
X0092769Y0056180D01*
X0092659Y0056240D01*
X0092552Y0056305D01*
X0092447Y0056372D01*
X0092344Y0056443D01*
X0092244Y0056517D01*
X0092146Y0056594D01*
X0092050Y0056675D01*
X0091957Y0056758D01*
X0091866Y0056844D01*
X0091779Y0056933D01*
X0091694Y0057025D01*
X0091612Y0057119D01*
X0091533Y0057216D01*
X0091458Y0057316D01*
X0091385Y0057417D01*
X0091316Y0057521D01*
X0091250Y0057628D01*
X0091188Y0057736D01*
X0091129Y0057846D01*
X0091073Y0057958D01*
X0091021Y0058072D01*
X0090973Y0058187D01*
X0090928Y0058303D01*
X0090888Y0058422D01*
X0090850Y0058541D01*
X0090817Y0058661D01*
X0090788Y0058783D01*
X0090762Y0058905D01*
X0090740Y0059028D01*
X0090723Y0059152D01*
X0090709Y0059276D01*
X0090699Y0059400D01*
X0090693Y0059525D01*
X0090691Y0059650D01*
D11*
X0077704Y0057338D02*
X0075102Y0057338D01*
X0075102Y0058205D02*
X0075102Y0056470D01*
X0075535Y0055259D02*
X0075102Y0054825D01*
X0075102Y0053957D01*
X0075535Y0053524D01*
X0077270Y0053524D01*
X0077704Y0053957D01*
X0077704Y0054825D01*
X0077270Y0055259D01*
X0076836Y0056470D02*
X0077704Y0057338D01*
X0077704Y0052312D02*
X0077704Y0050577D01*
X0077704Y0051445D02*
X0075102Y0051445D01*
X0076403Y0049366D02*
X0075969Y0048932D01*
X0075969Y0047631D01*
X0075102Y0047631D02*
X0077704Y0047631D01*
X0077704Y0048932D01*
X0077270Y0049366D01*
X0076403Y0049366D01*
X0102546Y0047941D02*
X0102546Y0047074D01*
X0102980Y0046640D01*
X0103848Y0046640D02*
X0104281Y0047508D01*
X0104281Y0047941D01*
X0103848Y0048375D01*
X0102980Y0048375D01*
X0102546Y0047941D01*
X0105149Y0048375D02*
X0105149Y0046640D01*
X0103848Y0046640D01*
X0104715Y0045429D02*
X0105149Y0044995D01*
X0105149Y0044127D01*
X0104715Y0043694D01*
X0102980Y0043694D01*
X0102546Y0044127D01*
X0102546Y0044995D01*
X0102980Y0045429D01*
X0111546Y0044995D02*
X0111546Y0044127D01*
X0111980Y0043694D01*
X0113715Y0043694D01*
X0114149Y0044127D01*
X0114149Y0044995D01*
X0113715Y0045429D01*
X0112848Y0046640D02*
X0112848Y0047941D01*
X0112414Y0048375D01*
X0111980Y0048375D01*
X0111546Y0047941D01*
X0111546Y0047074D01*
X0111980Y0046640D01*
X0112848Y0046640D01*
X0113715Y0047508D01*
X0114149Y0048375D01*
X0111980Y0045429D02*
X0111546Y0044995D01*
X0113647Y0037033D02*
X0113213Y0036599D01*
X0113213Y0036166D01*
X0113647Y0035732D01*
X0113213Y0035298D01*
X0113213Y0034864D01*
X0113647Y0034431D01*
X0114514Y0034431D01*
X0114948Y0034864D01*
X0114081Y0035732D02*
X0113647Y0035732D01*
X0113647Y0037033D02*
X0114514Y0037033D01*
X0114948Y0036599D01*
X0116160Y0036599D02*
X0116160Y0035732D01*
X0116594Y0035298D01*
X0117895Y0035298D01*
X0117895Y0034431D02*
X0117895Y0037033D01*
X0116594Y0037033D01*
X0116160Y0036599D01*
X0117027Y0035298D02*
X0116160Y0034431D01*
X0120625Y0027178D02*
X0120625Y0024576D01*
X0121492Y0024576D02*
X0119757Y0024576D01*
X0121492Y0026310D02*
X0120625Y0027178D01*
X0122704Y0026744D02*
X0123137Y0027178D01*
X0124005Y0027178D01*
X0124439Y0026744D01*
X0124439Y0025009D01*
X0124005Y0024576D01*
X0123137Y0024576D01*
X0122704Y0025009D01*
X0123137Y0020178D02*
X0124005Y0020178D01*
X0124439Y0019744D01*
X0124439Y0018009D01*
X0124005Y0017576D01*
X0123137Y0017576D01*
X0122704Y0018009D01*
X0121492Y0017576D02*
X0119757Y0019310D01*
X0119757Y0019744D01*
X0120191Y0020178D01*
X0121058Y0020178D01*
X0121492Y0019744D01*
X0122704Y0019744D02*
X0123137Y0020178D01*
X0121492Y0017576D02*
X0119757Y0017576D01*
X0158902Y0026238D02*
X0161504Y0026238D01*
X0161504Y0027539D01*
X0161070Y0027972D01*
X0160203Y0027972D01*
X0159769Y0027539D01*
X0159769Y0026238D01*
X0159769Y0027105D02*
X0158902Y0027972D01*
X0160203Y0029184D02*
X0160203Y0030919D01*
X0158902Y0030485D02*
X0161504Y0030485D01*
X0160203Y0029184D01*
X0167102Y0029511D02*
X0167535Y0029077D01*
X0167102Y0029511D02*
X0167102Y0030378D01*
X0167535Y0030812D01*
X0168403Y0030812D01*
X0168836Y0030378D01*
X0168836Y0029945D01*
X0168403Y0029077D01*
X0169704Y0029077D01*
X0169704Y0030812D01*
X0169270Y0027866D02*
X0168403Y0027866D01*
X0167969Y0027432D01*
X0167969Y0026131D01*
X0167969Y0026998D02*
X0167102Y0027866D01*
X0169270Y0027866D02*
X0169704Y0027432D01*
X0169704Y0026131D01*
X0167102Y0026131D01*
X0147395Y0041931D02*
X0147395Y0044533D01*
X0146094Y0044533D01*
X0145660Y0044099D01*
X0145660Y0043232D01*
X0146094Y0042798D01*
X0147395Y0042798D01*
X0146527Y0042798D02*
X0145660Y0041931D01*
X0144448Y0041931D02*
X0142713Y0043666D01*
X0142713Y0044099D01*
X0143147Y0044533D01*
X0144014Y0044533D01*
X0144448Y0044099D01*
X0144448Y0041931D02*
X0142713Y0041931D01*
X0159846Y0047734D02*
X0160280Y0047301D01*
X0162015Y0047301D01*
X0162449Y0047734D01*
X0162449Y0048602D01*
X0162015Y0049035D01*
X0160280Y0049035D02*
X0159846Y0048602D01*
X0159846Y0047734D01*
X0160280Y0050247D02*
X0159846Y0050681D01*
X0159846Y0051548D01*
X0160280Y0051982D01*
X0160714Y0051982D01*
X0161148Y0051548D01*
X0161148Y0051115D01*
X0161148Y0051548D02*
X0161581Y0051982D01*
X0162015Y0051982D01*
X0162449Y0051548D01*
X0162449Y0050681D01*
X0162015Y0050247D01*
X0166846Y0051548D02*
X0169449Y0051548D01*
X0168148Y0050247D01*
X0168148Y0051982D01*
X0169015Y0049035D02*
X0169449Y0048602D01*
X0169449Y0047734D01*
X0169015Y0047301D01*
X0167280Y0047301D01*
X0166846Y0047734D01*
X0166846Y0048602D01*
X0167280Y0049035D01*
X0147895Y0061931D02*
X0147895Y0064533D01*
X0146594Y0064533D01*
X0146160Y0064099D01*
X0146160Y0063232D01*
X0146594Y0062798D01*
X0147895Y0062798D01*
X0147027Y0062798D02*
X0146160Y0061931D01*
X0144948Y0061931D02*
X0143213Y0061931D01*
X0144081Y0061931D02*
X0144081Y0064533D01*
X0144948Y0063666D01*
D12*
X0096861Y0050571D02*
X0096861Y0043091D01*
X0091743Y0043091D02*
X0091743Y0050571D01*
X0092727Y0049193D02*
X0095876Y0049193D01*
X0094412Y0047721D02*
X0094191Y0047721D01*
X0094302Y0047831D02*
X0092802Y0046331D01*
X0095802Y0046331D01*
X0094302Y0047831D01*
X0092802Y0046331D01*
X0092802Y0046280D02*
X0095802Y0046280D01*
X0095802Y0046331D02*
X0094302Y0047831D01*
X0094910Y0047222D02*
X0093693Y0047222D01*
X0093194Y0046724D02*
X0095409Y0046724D01*
D13*
X0086345Y0045744D02*
X0086345Y0059917D01*
X0079258Y0059917D01*
X0079258Y0045744D01*
X0086345Y0045744D01*
M02*
