%
M48
M72
T01C0.0120
T02C0.0200
T03C0.0236
T04C0.0250
T05C0.0320
T06C0.0433
T07C0.0787
%
T01
X9680Y3523
X13520Y5203
X13660Y5723
X15690Y5603
X16120Y4843
X16800Y4563
X16480Y3923
X14640Y3443
X14400Y3683
X14400Y4483
X17360Y2763
T02
X17680Y3433
X17680Y3933
X17680Y4433
X17680Y4933
X17680Y5433
X17680Y5933
T03
X12830Y2183
X12830Y1483
T04
X11720Y4053
X12320Y5803
X7080Y5363
T05
X10000Y4203
X11120Y4203
X13680Y4563
X8240Y2923
T06
X7109Y2947
X7109Y4719
T07
X9463Y5965
X9463Y1713
M30
