G75*
%MOIN*%
%OFA0B0*%
%FSLAX25Y25*%
%IPPOS*%
%LPD*%
%AMOC8*
5,1,8,0,0,1.08239X$1,22.5*
%
%ADD10C,0.00000*%
%ADD11C,0.00600*%
%ADD12C,0.00800*%
%ADD13C,0.01600*%
%ADD14R,0.02300X0.01600*%
%ADD15R,0.00984X0.00984*%
D10*
X0058802Y0014831D02*
X0061802Y0011831D01*
X0180849Y0011831D01*
X0180849Y0066949D01*
X0061802Y0066949D01*
X0058802Y0063949D01*
X0058802Y0014831D01*
X0088691Y0018130D02*
X0088693Y0018255D01*
X0088699Y0018380D01*
X0088709Y0018504D01*
X0088723Y0018628D01*
X0088740Y0018752D01*
X0088762Y0018875D01*
X0088788Y0018997D01*
X0088817Y0019119D01*
X0088850Y0019239D01*
X0088888Y0019358D01*
X0088928Y0019477D01*
X0088973Y0019593D01*
X0089021Y0019708D01*
X0089073Y0019822D01*
X0089129Y0019934D01*
X0089188Y0020044D01*
X0089250Y0020152D01*
X0089316Y0020259D01*
X0089385Y0020363D01*
X0089458Y0020464D01*
X0089533Y0020564D01*
X0089612Y0020661D01*
X0089694Y0020755D01*
X0089779Y0020847D01*
X0089866Y0020936D01*
X0089957Y0021022D01*
X0090050Y0021105D01*
X0090146Y0021186D01*
X0090244Y0021263D01*
X0090344Y0021337D01*
X0090447Y0021408D01*
X0090552Y0021475D01*
X0090660Y0021540D01*
X0090769Y0021600D01*
X0090880Y0021658D01*
X0090993Y0021711D01*
X0091107Y0021761D01*
X0091223Y0021808D01*
X0091340Y0021850D01*
X0091459Y0021889D01*
X0091579Y0021925D01*
X0091700Y0021956D01*
X0091822Y0021984D01*
X0091944Y0022007D01*
X0092068Y0022027D01*
X0092192Y0022043D01*
X0092316Y0022055D01*
X0092441Y0022063D01*
X0092566Y0022067D01*
X0092690Y0022067D01*
X0092815Y0022063D01*
X0092940Y0022055D01*
X0093064Y0022043D01*
X0093188Y0022027D01*
X0093312Y0022007D01*
X0093434Y0021984D01*
X0093556Y0021956D01*
X0093677Y0021925D01*
X0093797Y0021889D01*
X0093916Y0021850D01*
X0094033Y0021808D01*
X0094149Y0021761D01*
X0094263Y0021711D01*
X0094376Y0021658D01*
X0094487Y0021600D01*
X0094597Y0021540D01*
X0094704Y0021475D01*
X0094809Y0021408D01*
X0094912Y0021337D01*
X0095012Y0021263D01*
X0095110Y0021186D01*
X0095206Y0021105D01*
X0095299Y0021022D01*
X0095390Y0020936D01*
X0095477Y0020847D01*
X0095562Y0020755D01*
X0095644Y0020661D01*
X0095723Y0020564D01*
X0095798Y0020464D01*
X0095871Y0020363D01*
X0095940Y0020259D01*
X0096006Y0020152D01*
X0096068Y0020044D01*
X0096127Y0019934D01*
X0096183Y0019822D01*
X0096235Y0019708D01*
X0096283Y0019593D01*
X0096328Y0019477D01*
X0096368Y0019358D01*
X0096406Y0019239D01*
X0096439Y0019119D01*
X0096468Y0018997D01*
X0096494Y0018875D01*
X0096516Y0018752D01*
X0096533Y0018628D01*
X0096547Y0018504D01*
X0096557Y0018380D01*
X0096563Y0018255D01*
X0096565Y0018130D01*
X0096563Y0018005D01*
X0096557Y0017880D01*
X0096547Y0017756D01*
X0096533Y0017632D01*
X0096516Y0017508D01*
X0096494Y0017385D01*
X0096468Y0017263D01*
X0096439Y0017141D01*
X0096406Y0017021D01*
X0096368Y0016902D01*
X0096328Y0016783D01*
X0096283Y0016667D01*
X0096235Y0016552D01*
X0096183Y0016438D01*
X0096127Y0016326D01*
X0096068Y0016216D01*
X0096006Y0016108D01*
X0095940Y0016001D01*
X0095871Y0015897D01*
X0095798Y0015796D01*
X0095723Y0015696D01*
X0095644Y0015599D01*
X0095562Y0015505D01*
X0095477Y0015413D01*
X0095390Y0015324D01*
X0095299Y0015238D01*
X0095206Y0015155D01*
X0095110Y0015074D01*
X0095012Y0014997D01*
X0094912Y0014923D01*
X0094809Y0014852D01*
X0094704Y0014785D01*
X0094596Y0014720D01*
X0094487Y0014660D01*
X0094376Y0014602D01*
X0094263Y0014549D01*
X0094149Y0014499D01*
X0094033Y0014452D01*
X0093916Y0014410D01*
X0093797Y0014371D01*
X0093677Y0014335D01*
X0093556Y0014304D01*
X0093434Y0014276D01*
X0093312Y0014253D01*
X0093188Y0014233D01*
X0093064Y0014217D01*
X0092940Y0014205D01*
X0092815Y0014197D01*
X0092690Y0014193D01*
X0092566Y0014193D01*
X0092441Y0014197D01*
X0092316Y0014205D01*
X0092192Y0014217D01*
X0092068Y0014233D01*
X0091944Y0014253D01*
X0091822Y0014276D01*
X0091700Y0014304D01*
X0091579Y0014335D01*
X0091459Y0014371D01*
X0091340Y0014410D01*
X0091223Y0014452D01*
X0091107Y0014499D01*
X0090993Y0014549D01*
X0090880Y0014602D01*
X0090769Y0014660D01*
X0090659Y0014720D01*
X0090552Y0014785D01*
X0090447Y0014852D01*
X0090344Y0014923D01*
X0090244Y0014997D01*
X0090146Y0015074D01*
X0090050Y0015155D01*
X0089957Y0015238D01*
X0089866Y0015324D01*
X0089779Y0015413D01*
X0089694Y0015505D01*
X0089612Y0015599D01*
X0089533Y0015696D01*
X0089458Y0015796D01*
X0089385Y0015897D01*
X0089316Y0016001D01*
X0089250Y0016108D01*
X0089188Y0016216D01*
X0089129Y0016326D01*
X0089073Y0016438D01*
X0089021Y0016552D01*
X0088973Y0016667D01*
X0088928Y0016783D01*
X0088888Y0016902D01*
X0088850Y0017021D01*
X0088817Y0017141D01*
X0088788Y0017263D01*
X0088762Y0017385D01*
X0088740Y0017508D01*
X0088723Y0017632D01*
X0088709Y0017756D01*
X0088699Y0017880D01*
X0088693Y0018005D01*
X0088691Y0018130D01*
X0068920Y0030472D02*
X0068922Y0030565D01*
X0068928Y0030657D01*
X0068938Y0030749D01*
X0068952Y0030840D01*
X0068969Y0030931D01*
X0068991Y0031021D01*
X0069016Y0031110D01*
X0069045Y0031198D01*
X0069078Y0031284D01*
X0069115Y0031369D01*
X0069155Y0031453D01*
X0069199Y0031534D01*
X0069246Y0031614D01*
X0069296Y0031692D01*
X0069350Y0031767D01*
X0069407Y0031840D01*
X0069467Y0031910D01*
X0069530Y0031978D01*
X0069596Y0032043D01*
X0069664Y0032105D01*
X0069735Y0032165D01*
X0069809Y0032221D01*
X0069885Y0032274D01*
X0069963Y0032323D01*
X0070043Y0032370D01*
X0070125Y0032412D01*
X0070209Y0032452D01*
X0070294Y0032487D01*
X0070381Y0032519D01*
X0070469Y0032548D01*
X0070558Y0032572D01*
X0070648Y0032593D01*
X0070739Y0032609D01*
X0070831Y0032622D01*
X0070923Y0032631D01*
X0071016Y0032636D01*
X0071108Y0032637D01*
X0071201Y0032634D01*
X0071293Y0032627D01*
X0071385Y0032616D01*
X0071476Y0032601D01*
X0071567Y0032583D01*
X0071657Y0032560D01*
X0071745Y0032534D01*
X0071833Y0032504D01*
X0071919Y0032470D01*
X0072003Y0032433D01*
X0072086Y0032391D01*
X0072167Y0032347D01*
X0072247Y0032299D01*
X0072324Y0032248D01*
X0072398Y0032193D01*
X0072471Y0032135D01*
X0072541Y0032075D01*
X0072608Y0032011D01*
X0072672Y0031945D01*
X0072734Y0031875D01*
X0072792Y0031804D01*
X0072847Y0031730D01*
X0072899Y0031653D01*
X0072948Y0031574D01*
X0072994Y0031494D01*
X0073036Y0031411D01*
X0073074Y0031327D01*
X0073109Y0031241D01*
X0073140Y0031154D01*
X0073167Y0031066D01*
X0073190Y0030976D01*
X0073210Y0030886D01*
X0073226Y0030795D01*
X0073238Y0030703D01*
X0073246Y0030611D01*
X0073250Y0030518D01*
X0073250Y0030426D01*
X0073246Y0030333D01*
X0073238Y0030241D01*
X0073226Y0030149D01*
X0073210Y0030058D01*
X0073190Y0029968D01*
X0073167Y0029878D01*
X0073140Y0029790D01*
X0073109Y0029703D01*
X0073074Y0029617D01*
X0073036Y0029533D01*
X0072994Y0029450D01*
X0072948Y0029370D01*
X0072899Y0029291D01*
X0072847Y0029214D01*
X0072792Y0029140D01*
X0072734Y0029069D01*
X0072672Y0028999D01*
X0072608Y0028933D01*
X0072541Y0028869D01*
X0072471Y0028809D01*
X0072398Y0028751D01*
X0072324Y0028696D01*
X0072247Y0028645D01*
X0072168Y0028597D01*
X0072086Y0028553D01*
X0072003Y0028511D01*
X0071919Y0028474D01*
X0071833Y0028440D01*
X0071745Y0028410D01*
X0071657Y0028384D01*
X0071567Y0028361D01*
X0071476Y0028343D01*
X0071385Y0028328D01*
X0071293Y0028317D01*
X0071201Y0028310D01*
X0071108Y0028307D01*
X0071016Y0028308D01*
X0070923Y0028313D01*
X0070831Y0028322D01*
X0070739Y0028335D01*
X0070648Y0028351D01*
X0070558Y0028372D01*
X0070469Y0028396D01*
X0070381Y0028425D01*
X0070294Y0028457D01*
X0070209Y0028492D01*
X0070125Y0028532D01*
X0070043Y0028574D01*
X0069963Y0028621D01*
X0069885Y0028670D01*
X0069809Y0028723D01*
X0069735Y0028779D01*
X0069664Y0028839D01*
X0069596Y0028901D01*
X0069530Y0028966D01*
X0069467Y0029034D01*
X0069407Y0029104D01*
X0069350Y0029177D01*
X0069296Y0029252D01*
X0069246Y0029330D01*
X0069199Y0029410D01*
X0069155Y0029491D01*
X0069115Y0029575D01*
X0069078Y0029660D01*
X0069045Y0029746D01*
X0069016Y0029834D01*
X0068991Y0029923D01*
X0068969Y0030013D01*
X0068952Y0030104D01*
X0068938Y0030195D01*
X0068928Y0030287D01*
X0068922Y0030379D01*
X0068920Y0030472D01*
X0068920Y0048189D02*
X0068922Y0048282D01*
X0068928Y0048374D01*
X0068938Y0048466D01*
X0068952Y0048557D01*
X0068969Y0048648D01*
X0068991Y0048738D01*
X0069016Y0048827D01*
X0069045Y0048915D01*
X0069078Y0049001D01*
X0069115Y0049086D01*
X0069155Y0049170D01*
X0069199Y0049251D01*
X0069246Y0049331D01*
X0069296Y0049409D01*
X0069350Y0049484D01*
X0069407Y0049557D01*
X0069467Y0049627D01*
X0069530Y0049695D01*
X0069596Y0049760D01*
X0069664Y0049822D01*
X0069735Y0049882D01*
X0069809Y0049938D01*
X0069885Y0049991D01*
X0069963Y0050040D01*
X0070043Y0050087D01*
X0070125Y0050129D01*
X0070209Y0050169D01*
X0070294Y0050204D01*
X0070381Y0050236D01*
X0070469Y0050265D01*
X0070558Y0050289D01*
X0070648Y0050310D01*
X0070739Y0050326D01*
X0070831Y0050339D01*
X0070923Y0050348D01*
X0071016Y0050353D01*
X0071108Y0050354D01*
X0071201Y0050351D01*
X0071293Y0050344D01*
X0071385Y0050333D01*
X0071476Y0050318D01*
X0071567Y0050300D01*
X0071657Y0050277D01*
X0071745Y0050251D01*
X0071833Y0050221D01*
X0071919Y0050187D01*
X0072003Y0050150D01*
X0072086Y0050108D01*
X0072167Y0050064D01*
X0072247Y0050016D01*
X0072324Y0049965D01*
X0072398Y0049910D01*
X0072471Y0049852D01*
X0072541Y0049792D01*
X0072608Y0049728D01*
X0072672Y0049662D01*
X0072734Y0049592D01*
X0072792Y0049521D01*
X0072847Y0049447D01*
X0072899Y0049370D01*
X0072948Y0049291D01*
X0072994Y0049211D01*
X0073036Y0049128D01*
X0073074Y0049044D01*
X0073109Y0048958D01*
X0073140Y0048871D01*
X0073167Y0048783D01*
X0073190Y0048693D01*
X0073210Y0048603D01*
X0073226Y0048512D01*
X0073238Y0048420D01*
X0073246Y0048328D01*
X0073250Y0048235D01*
X0073250Y0048143D01*
X0073246Y0048050D01*
X0073238Y0047958D01*
X0073226Y0047866D01*
X0073210Y0047775D01*
X0073190Y0047685D01*
X0073167Y0047595D01*
X0073140Y0047507D01*
X0073109Y0047420D01*
X0073074Y0047334D01*
X0073036Y0047250D01*
X0072994Y0047167D01*
X0072948Y0047087D01*
X0072899Y0047008D01*
X0072847Y0046931D01*
X0072792Y0046857D01*
X0072734Y0046786D01*
X0072672Y0046716D01*
X0072608Y0046650D01*
X0072541Y0046586D01*
X0072471Y0046526D01*
X0072398Y0046468D01*
X0072324Y0046413D01*
X0072247Y0046362D01*
X0072168Y0046314D01*
X0072086Y0046270D01*
X0072003Y0046228D01*
X0071919Y0046191D01*
X0071833Y0046157D01*
X0071745Y0046127D01*
X0071657Y0046101D01*
X0071567Y0046078D01*
X0071476Y0046060D01*
X0071385Y0046045D01*
X0071293Y0046034D01*
X0071201Y0046027D01*
X0071108Y0046024D01*
X0071016Y0046025D01*
X0070923Y0046030D01*
X0070831Y0046039D01*
X0070739Y0046052D01*
X0070648Y0046068D01*
X0070558Y0046089D01*
X0070469Y0046113D01*
X0070381Y0046142D01*
X0070294Y0046174D01*
X0070209Y0046209D01*
X0070125Y0046249D01*
X0070043Y0046291D01*
X0069963Y0046338D01*
X0069885Y0046387D01*
X0069809Y0046440D01*
X0069735Y0046496D01*
X0069664Y0046556D01*
X0069596Y0046618D01*
X0069530Y0046683D01*
X0069467Y0046751D01*
X0069407Y0046821D01*
X0069350Y0046894D01*
X0069296Y0046969D01*
X0069246Y0047047D01*
X0069199Y0047127D01*
X0069155Y0047208D01*
X0069115Y0047292D01*
X0069078Y0047377D01*
X0069045Y0047463D01*
X0069016Y0047551D01*
X0068991Y0047640D01*
X0068969Y0047730D01*
X0068952Y0047821D01*
X0068938Y0047912D01*
X0068928Y0048004D01*
X0068922Y0048096D01*
X0068920Y0048189D01*
X0088691Y0060650D02*
X0088693Y0060775D01*
X0088699Y0060900D01*
X0088709Y0061024D01*
X0088723Y0061148D01*
X0088740Y0061272D01*
X0088762Y0061395D01*
X0088788Y0061517D01*
X0088817Y0061639D01*
X0088850Y0061759D01*
X0088888Y0061878D01*
X0088928Y0061997D01*
X0088973Y0062113D01*
X0089021Y0062228D01*
X0089073Y0062342D01*
X0089129Y0062454D01*
X0089188Y0062564D01*
X0089250Y0062672D01*
X0089316Y0062779D01*
X0089385Y0062883D01*
X0089458Y0062984D01*
X0089533Y0063084D01*
X0089612Y0063181D01*
X0089694Y0063275D01*
X0089779Y0063367D01*
X0089866Y0063456D01*
X0089957Y0063542D01*
X0090050Y0063625D01*
X0090146Y0063706D01*
X0090244Y0063783D01*
X0090344Y0063857D01*
X0090447Y0063928D01*
X0090552Y0063995D01*
X0090660Y0064060D01*
X0090769Y0064120D01*
X0090880Y0064178D01*
X0090993Y0064231D01*
X0091107Y0064281D01*
X0091223Y0064328D01*
X0091340Y0064370D01*
X0091459Y0064409D01*
X0091579Y0064445D01*
X0091700Y0064476D01*
X0091822Y0064504D01*
X0091944Y0064527D01*
X0092068Y0064547D01*
X0092192Y0064563D01*
X0092316Y0064575D01*
X0092441Y0064583D01*
X0092566Y0064587D01*
X0092690Y0064587D01*
X0092815Y0064583D01*
X0092940Y0064575D01*
X0093064Y0064563D01*
X0093188Y0064547D01*
X0093312Y0064527D01*
X0093434Y0064504D01*
X0093556Y0064476D01*
X0093677Y0064445D01*
X0093797Y0064409D01*
X0093916Y0064370D01*
X0094033Y0064328D01*
X0094149Y0064281D01*
X0094263Y0064231D01*
X0094376Y0064178D01*
X0094487Y0064120D01*
X0094597Y0064060D01*
X0094704Y0063995D01*
X0094809Y0063928D01*
X0094912Y0063857D01*
X0095012Y0063783D01*
X0095110Y0063706D01*
X0095206Y0063625D01*
X0095299Y0063542D01*
X0095390Y0063456D01*
X0095477Y0063367D01*
X0095562Y0063275D01*
X0095644Y0063181D01*
X0095723Y0063084D01*
X0095798Y0062984D01*
X0095871Y0062883D01*
X0095940Y0062779D01*
X0096006Y0062672D01*
X0096068Y0062564D01*
X0096127Y0062454D01*
X0096183Y0062342D01*
X0096235Y0062228D01*
X0096283Y0062113D01*
X0096328Y0061997D01*
X0096368Y0061878D01*
X0096406Y0061759D01*
X0096439Y0061639D01*
X0096468Y0061517D01*
X0096494Y0061395D01*
X0096516Y0061272D01*
X0096533Y0061148D01*
X0096547Y0061024D01*
X0096557Y0060900D01*
X0096563Y0060775D01*
X0096565Y0060650D01*
X0096563Y0060525D01*
X0096557Y0060400D01*
X0096547Y0060276D01*
X0096533Y0060152D01*
X0096516Y0060028D01*
X0096494Y0059905D01*
X0096468Y0059783D01*
X0096439Y0059661D01*
X0096406Y0059541D01*
X0096368Y0059422D01*
X0096328Y0059303D01*
X0096283Y0059187D01*
X0096235Y0059072D01*
X0096183Y0058958D01*
X0096127Y0058846D01*
X0096068Y0058736D01*
X0096006Y0058628D01*
X0095940Y0058521D01*
X0095871Y0058417D01*
X0095798Y0058316D01*
X0095723Y0058216D01*
X0095644Y0058119D01*
X0095562Y0058025D01*
X0095477Y0057933D01*
X0095390Y0057844D01*
X0095299Y0057758D01*
X0095206Y0057675D01*
X0095110Y0057594D01*
X0095012Y0057517D01*
X0094912Y0057443D01*
X0094809Y0057372D01*
X0094704Y0057305D01*
X0094596Y0057240D01*
X0094487Y0057180D01*
X0094376Y0057122D01*
X0094263Y0057069D01*
X0094149Y0057019D01*
X0094033Y0056972D01*
X0093916Y0056930D01*
X0093797Y0056891D01*
X0093677Y0056855D01*
X0093556Y0056824D01*
X0093434Y0056796D01*
X0093312Y0056773D01*
X0093188Y0056753D01*
X0093064Y0056737D01*
X0092940Y0056725D01*
X0092815Y0056717D01*
X0092690Y0056713D01*
X0092566Y0056713D01*
X0092441Y0056717D01*
X0092316Y0056725D01*
X0092192Y0056737D01*
X0092068Y0056753D01*
X0091944Y0056773D01*
X0091822Y0056796D01*
X0091700Y0056824D01*
X0091579Y0056855D01*
X0091459Y0056891D01*
X0091340Y0056930D01*
X0091223Y0056972D01*
X0091107Y0057019D01*
X0090993Y0057069D01*
X0090880Y0057122D01*
X0090769Y0057180D01*
X0090659Y0057240D01*
X0090552Y0057305D01*
X0090447Y0057372D01*
X0090344Y0057443D01*
X0090244Y0057517D01*
X0090146Y0057594D01*
X0090050Y0057675D01*
X0089957Y0057758D01*
X0089866Y0057844D01*
X0089779Y0057933D01*
X0089694Y0058025D01*
X0089612Y0058119D01*
X0089533Y0058216D01*
X0089458Y0058316D01*
X0089385Y0058417D01*
X0089316Y0058521D01*
X0089250Y0058628D01*
X0089188Y0058736D01*
X0089129Y0058846D01*
X0089073Y0058958D01*
X0089021Y0059072D01*
X0088973Y0059187D01*
X0088928Y0059303D01*
X0088888Y0059422D01*
X0088850Y0059541D01*
X0088817Y0059661D01*
X0088788Y0059783D01*
X0088762Y0059905D01*
X0088740Y0060028D01*
X0088723Y0060152D01*
X0088709Y0060276D01*
X0088699Y0060400D01*
X0088693Y0060525D01*
X0088691Y0060650D01*
D11*
X0094844Y0056315D02*
X0095278Y0056749D01*
X0095712Y0056749D01*
X0097446Y0055014D01*
X0097446Y0056749D01*
X0094844Y0056315D02*
X0094844Y0055448D01*
X0095278Y0055014D01*
X0095278Y0053803D02*
X0094844Y0053369D01*
X0094844Y0052501D01*
X0095278Y0052068D01*
X0097013Y0052068D01*
X0097446Y0052501D01*
X0097446Y0053369D01*
X0097013Y0053803D01*
X0113802Y0055331D02*
X0115302Y0055331D01*
X0115302Y0062331D01*
X0115302Y0062831D01*
X0136802Y0062831D01*
X0136862Y0062829D01*
X0136923Y0062824D01*
X0136982Y0062815D01*
X0137041Y0062802D01*
X0137100Y0062786D01*
X0137157Y0062766D01*
X0137212Y0062743D01*
X0137267Y0062716D01*
X0137319Y0062687D01*
X0137370Y0062654D01*
X0137419Y0062618D01*
X0137465Y0062580D01*
X0137509Y0062538D01*
X0137551Y0062494D01*
X0137589Y0062448D01*
X0137625Y0062399D01*
X0137658Y0062348D01*
X0137687Y0062296D01*
X0137714Y0062241D01*
X0137737Y0062186D01*
X0137757Y0062129D01*
X0137773Y0062070D01*
X0137786Y0062011D01*
X0137795Y0061952D01*
X0137800Y0061891D01*
X0137802Y0061831D01*
X0137802Y0055831D01*
X0137800Y0055771D01*
X0137795Y0055710D01*
X0137786Y0055651D01*
X0137773Y0055592D01*
X0137757Y0055533D01*
X0137737Y0055476D01*
X0137714Y0055421D01*
X0137687Y0055366D01*
X0137658Y0055314D01*
X0137625Y0055263D01*
X0137589Y0055214D01*
X0137551Y0055168D01*
X0137509Y0055124D01*
X0137465Y0055082D01*
X0137419Y0055044D01*
X0137370Y0055008D01*
X0137319Y0054975D01*
X0137267Y0054946D01*
X0137212Y0054919D01*
X0137157Y0054896D01*
X0137100Y0054876D01*
X0137041Y0054860D01*
X0136982Y0054847D01*
X0136923Y0054838D01*
X0136862Y0054833D01*
X0136802Y0054831D01*
X0115302Y0054831D01*
X0115302Y0055331D01*
X0113802Y0055331D02*
X0113802Y0062331D01*
X0115302Y0062331D01*
X0123802Y0060831D02*
X0123802Y0058831D01*
X0123802Y0056831D01*
X0125302Y0056831D02*
X0126802Y0056831D01*
X0126802Y0060831D01*
X0125302Y0060831D01*
X0125302Y0056831D01*
X0123802Y0058831D02*
X0121802Y0058831D01*
X0128302Y0058831D02*
X0128302Y0056831D01*
X0128302Y0058831D02*
X0130302Y0058831D01*
X0128302Y0058831D02*
X0128302Y0060831D01*
X0126768Y0049919D02*
X0125900Y0049919D01*
X0125467Y0049485D01*
X0125467Y0049052D01*
X0125900Y0048184D01*
X0124599Y0048184D01*
X0124599Y0049919D01*
X0126768Y0049919D02*
X0127202Y0049485D01*
X0127202Y0048618D01*
X0126768Y0048184D01*
X0127202Y0046972D02*
X0126334Y0046105D01*
X0126334Y0046539D02*
X0126334Y0045238D01*
X0127202Y0045238D02*
X0124599Y0045238D01*
X0124599Y0046539D01*
X0125033Y0046972D01*
X0125900Y0046972D01*
X0126334Y0046539D01*
X0122101Y0038638D02*
X0097502Y0038638D01*
X0097502Y0025016D01*
X0122101Y0025016D01*
X0122101Y0038638D01*
X0129399Y0024878D02*
X0130700Y0023577D01*
X0130700Y0025312D01*
X0129399Y0024878D02*
X0132002Y0024878D01*
X0132002Y0022366D02*
X0131134Y0021498D01*
X0131134Y0021932D02*
X0131134Y0020631D01*
X0132002Y0020631D02*
X0129399Y0020631D01*
X0129399Y0021932D01*
X0129833Y0022366D01*
X0130700Y0022366D01*
X0131134Y0021932D01*
X0154102Y0026131D02*
X0154102Y0028733D01*
X0155403Y0028733D01*
X0155836Y0028299D01*
X0155836Y0027432D01*
X0155403Y0026998D01*
X0154102Y0026998D01*
X0154969Y0026998D02*
X0155836Y0026131D01*
X0157048Y0026131D02*
X0158783Y0026131D01*
X0157915Y0026131D02*
X0157915Y0028733D01*
X0157048Y0027866D01*
X0157048Y0034131D02*
X0158783Y0035866D01*
X0158783Y0036299D01*
X0158349Y0036733D01*
X0157482Y0036733D01*
X0157048Y0036299D01*
X0155836Y0036299D02*
X0155836Y0035432D01*
X0155403Y0034998D01*
X0154102Y0034998D01*
X0154969Y0034998D02*
X0155836Y0034131D01*
X0157048Y0034131D02*
X0158783Y0034131D01*
X0154102Y0034131D02*
X0154102Y0036733D01*
X0155403Y0036733D01*
X0155836Y0036299D01*
D12*
X0151557Y0040319D02*
X0148408Y0040319D01*
X0151557Y0040319D02*
X0151557Y0042681D01*
X0151557Y0048980D02*
X0151557Y0051343D01*
X0148408Y0051343D01*
X0149695Y0053819D02*
X0146546Y0053819D01*
X0146546Y0056181D01*
X0146546Y0062480D02*
X0146546Y0064843D01*
X0149695Y0064843D01*
X0075416Y0055079D02*
X0075416Y0023583D01*
X0062605Y0015709D02*
X0058802Y0015709D01*
X0058802Y0062953D01*
X0062605Y0062953D01*
D13*
X0110302Y0060831D02*
X0112302Y0060831D01*
X0111802Y0056831D02*
X0110302Y0056831D01*
D14*
X0112452Y0056831D03*
X0112452Y0060831D03*
D15*
X0138802Y0047823D03*
X0093302Y0039323D03*
X0138802Y0025839D03*
M02*
